<svg width="424" height="371" viewBox="0 0 424 371" fill="none" xmlns="http://www.w3.org/2000/svg">
<rect width="424" height="371" rx="16" fill="white"/>
<rect x="32" y="267" width="360" height="64" rx="16" fill="#20BC69"/>
<path d="M163.818 305V291.66H170.838C173.378 291.66 174.678 293.28 174.678 295.06C174.678 296.74 173.638 297.86 172.378 298.12C173.798 298.34 174.938 299.72 174.938 301.4C174.938 303.4 173.598 305 171.058 305H163.818ZM166.658 297.02H170.218C171.178 297.02 171.778 296.4 171.778 295.54C171.778 294.72 171.178 294.08 170.218 294.08H166.658V297.02ZM166.658 302.58H170.318C171.398 302.58 172.038 301.96 172.038 301C172.038 300.16 171.438 299.44 170.318 299.44H166.658V302.58ZM183.54 305V303.78C182.88 304.52 181.72 305.24 180.14 305.24C178.02 305.24 177.02 304.08 177.02 302.2V295.34H179.56V301.2C179.56 302.54 180.26 302.98 181.34 302.98C182.32 302.98 183.1 302.44 183.54 301.88V295.34H186.08V305H183.54ZM188.642 306.5C188.862 306.6 189.202 306.66 189.442 306.66C190.102 306.66 190.542 306.48 190.782 305.96L191.142 305.14L187.222 295.34H189.942L192.462 302.06L194.982 295.34H197.722L193.182 306.58C192.462 308.4 191.182 308.88 189.522 308.92C189.222 308.92 188.582 308.86 188.262 308.78L188.642 306.5ZM204.033 305V291.66H206.873V305H204.033ZM212.701 305.24C210.921 305.24 209.961 304.32 209.961 302.6V297.56H208.361V295.34H209.961V292.7H212.521V295.34H214.481V297.56H212.521V301.92C212.521 302.52 212.841 302.98 213.401 302.98C213.781 302.98 214.141 302.84 214.281 302.7L214.821 304.62C214.441 304.96 213.761 305.24 212.701 305.24ZM230.596 305L224.236 296.04V305H221.396V291.66H224.316L230.496 300.3V291.66H233.336V305H230.596ZM240.386 305.24C237.206 305.24 235.286 302.92 235.286 300.16C235.286 297.42 237.206 295.1 240.386 295.1C243.586 295.1 245.506 297.42 245.506 300.16C245.506 302.92 243.586 305.24 240.386 305.24ZM240.386 302.98C241.966 302.98 242.866 301.68 242.866 300.16C242.866 298.66 241.966 297.36 240.386 297.36C238.806 297.36 237.926 298.66 237.926 300.16C237.926 301.68 238.806 302.98 240.386 302.98ZM255.871 305L253.831 298.42L251.791 305H249.071L246.131 295.34H248.771L250.571 301.84L252.691 295.34H254.951L257.071 301.84L258.871 295.34H261.511L258.571 305H255.871Z" fill="white"/>
<path d="M36.017 157.104C35.3237 157.104 34.6607 157 34.028 156.792C33.3953 156.575 32.897 156.298 32.533 155.96L33.014 154.946C33.3607 155.249 33.8027 155.501 34.34 155.7C34.8773 155.899 35.4363 155.999 36.017 155.999C36.5457 155.999 36.9747 155.938 37.304 155.817C37.6333 155.696 37.876 155.531 38.032 155.323C38.188 155.106 38.266 154.864 38.266 154.595C38.266 154.283 38.162 154.032 37.954 153.841C37.7547 153.65 37.4903 153.499 37.161 153.386C36.8403 153.265 36.485 153.161 36.095 153.074C35.705 152.987 35.3107 152.888 34.912 152.775C34.522 152.654 34.1623 152.502 33.833 152.32C33.5123 152.138 33.2523 151.895 33.053 151.592C32.8537 151.28 32.754 150.881 32.754 150.396C32.754 149.928 32.8753 149.499 33.118 149.109C33.3693 148.71 33.7507 148.394 34.262 148.16C34.782 147.917 35.4407 147.796 36.238 147.796C36.7667 147.796 37.291 147.865 37.811 148.004C38.331 148.143 38.7817 148.342 39.163 148.602L38.734 149.642C38.344 149.382 37.9323 149.196 37.499 149.083C37.0657 148.962 36.6453 148.901 36.238 148.901C35.7267 148.901 35.3063 148.966 34.977 149.096C34.6477 149.226 34.405 149.399 34.249 149.616C34.1017 149.833 34.028 150.075 34.028 150.344C34.028 150.665 34.1277 150.92 34.327 151.111C34.535 151.302 34.7993 151.453 35.12 151.566C35.4493 151.679 35.809 151.783 36.199 151.878C36.589 151.965 36.979 152.064 37.369 152.177C37.7677 152.29 38.1273 152.437 38.448 152.619C38.7773 152.801 39.0417 153.044 39.241 153.347C39.4403 153.65 39.54 154.04 39.54 154.517C39.54 154.976 39.4143 155.405 39.163 155.804C38.9117 156.194 38.5217 156.51 37.993 156.753C37.473 156.987 36.8143 157.104 36.017 157.104ZM44.1952 157.078C43.4586 157.078 42.8086 156.926 42.2452 156.623C41.6906 156.32 41.2572 155.904 40.9452 155.375C40.6419 154.846 40.4902 154.24 40.4902 153.555C40.4902 152.87 40.6376 152.264 40.9322 151.735C41.2356 151.206 41.6472 150.795 42.1672 150.5C42.6959 150.197 43.2896 150.045 43.9482 150.045C44.6156 150.045 45.2049 150.192 45.7162 150.487C46.2276 150.782 46.6262 151.198 46.9122 151.735C47.2069 152.264 47.3542 152.883 47.3542 153.594C47.3542 153.646 47.3499 153.707 47.3412 153.776C47.3412 153.845 47.3369 153.91 47.3282 153.971H41.4652V153.074H46.6782L46.1712 153.386C46.1799 152.944 46.0889 152.55 45.8982 152.203C45.7076 151.856 45.4432 151.588 45.1052 151.397C44.7759 151.198 44.3902 151.098 43.9482 151.098C43.5149 151.098 43.1292 151.198 42.7912 151.397C42.4532 151.588 42.1889 151.861 41.9982 152.216C41.8076 152.563 41.7122 152.961 41.7122 153.412V153.62C41.7122 154.079 41.8162 154.491 42.0242 154.855C42.2409 155.21 42.5399 155.488 42.9212 155.687C43.3026 155.886 43.7402 155.986 44.2342 155.986C44.6416 155.986 45.0099 155.917 45.3392 155.778C45.6772 155.639 45.9719 155.431 46.2232 155.154L46.9122 155.96C46.6002 156.324 46.2102 156.601 45.7422 156.792C45.2829 156.983 44.7672 157.078 44.1952 157.078ZM48.9572 157V147.354H50.2052V157H48.9572ZM55.526 157.078C54.7894 157.078 54.1394 156.926 53.576 156.623C53.0214 156.32 52.588 155.904 52.276 155.375C51.9727 154.846 51.821 154.24 51.821 153.555C51.821 152.87 51.9684 152.264 52.263 151.735C52.5664 151.206 52.978 150.795 53.498 150.5C54.0267 150.197 54.6204 150.045 55.279 150.045C55.9464 150.045 56.5357 150.192 57.047 150.487C57.5584 150.782 57.957 151.198 58.243 151.735C58.5377 152.264 58.685 152.883 58.685 153.594C58.685 153.646 58.6807 153.707 58.672 153.776C58.672 153.845 58.6677 153.91 58.659 153.971H52.796V153.074H58.009L57.502 153.386C57.5107 152.944 57.4197 152.55 57.229 152.203C57.0384 151.856 56.774 151.588 56.436 151.397C56.1067 151.198 55.721 151.098 55.279 151.098C54.8457 151.098 54.46 151.198 54.122 151.397C53.784 151.588 53.5197 151.861 53.329 152.216C53.1384 152.563 53.043 152.961 53.043 153.412V153.62C53.043 154.079 53.147 154.491 53.355 154.855C53.5717 155.21 53.8707 155.488 54.252 155.687C54.6334 155.886 55.071 155.986 55.565 155.986C55.9724 155.986 56.3407 155.917 56.67 155.778C57.008 155.639 57.3027 155.431 57.554 155.154L58.243 155.96C57.931 156.324 57.541 156.601 57.073 156.792C56.6137 156.983 56.098 157.078 55.526 157.078ZM63.291 157.078C62.589 157.078 61.9607 156.926 61.406 156.623C60.86 156.32 60.431 155.904 60.119 155.375C59.807 154.846 59.651 154.24 59.651 153.555C59.651 152.87 59.807 152.264 60.119 151.735C60.431 151.206 60.86 150.795 61.406 150.5C61.9607 150.197 62.589 150.045 63.291 150.045C63.915 150.045 64.4697 150.171 64.955 150.422C65.449 150.665 65.8303 151.029 66.099 151.514L65.15 152.125C64.9247 151.787 64.6473 151.54 64.318 151.384C63.9973 151.219 63.6507 151.137 63.278 151.137C62.8273 151.137 62.4243 151.237 62.069 151.436C61.7137 151.635 61.432 151.917 61.224 152.281C61.016 152.636 60.912 153.061 60.912 153.555C60.912 154.049 61.016 154.478 61.224 154.842C61.432 155.206 61.7137 155.488 62.069 155.687C62.4243 155.886 62.8273 155.986 63.278 155.986C63.6507 155.986 63.9973 155.908 64.318 155.752C64.6473 155.587 64.9247 155.336 65.15 154.998L66.099 155.596C65.8303 156.073 65.449 156.441 64.955 156.701C64.4697 156.952 63.915 157.078 63.291 157.078ZM70.0396 157.078C69.3463 157.078 68.809 156.892 68.4276 156.519C68.0463 156.146 67.8556 155.613 67.8556 154.92V148.602H69.1036V154.868C69.1036 155.241 69.1946 155.527 69.3766 155.726C69.5673 155.925 69.836 156.025 70.1826 156.025C70.5726 156.025 70.8976 155.917 71.1576 155.7L71.5476 156.597C71.357 156.762 71.1273 156.883 70.8586 156.961C70.5986 157.039 70.3256 157.078 70.0396 157.078ZM66.6856 151.137V150.11H71.0796V151.137H66.6856ZM80.5646 157V155.544L80.4996 155.271V152.788C80.4996 152.259 80.3436 151.852 80.0316 151.566C79.7283 151.271 79.269 151.124 78.6536 151.124C78.2463 151.124 77.8476 151.193 77.4576 151.332C77.0676 151.462 76.7383 151.64 76.4696 151.865L75.9496 150.929C76.305 150.643 76.7296 150.426 77.2236 150.279C77.7263 150.123 78.2506 150.045 78.7966 150.045C79.7413 150.045 80.4693 150.275 80.9806 150.734C81.492 151.193 81.7476 151.895 81.7476 152.84V157H80.5646ZM78.3026 157.078C77.7913 157.078 77.3406 156.991 76.9506 156.818C76.5693 156.645 76.2746 156.406 76.0666 156.103C75.8586 155.791 75.7546 155.44 75.7546 155.05C75.7546 154.677 75.8413 154.339 76.0146 154.036C76.1966 153.733 76.487 153.49 76.8856 153.308C77.293 153.126 77.839 153.035 78.5236 153.035H80.7076V153.932H78.5756C77.9516 153.932 77.5313 154.036 77.3146 154.244C77.098 154.452 76.9896 154.703 76.9896 154.998C76.9896 155.336 77.124 155.609 77.3926 155.817C77.6613 156.016 78.034 156.116 78.5106 156.116C78.9786 156.116 79.386 156.012 79.7326 155.804C80.088 155.596 80.3436 155.293 80.4996 154.894L80.7466 155.752C80.582 156.159 80.2916 156.484 79.8756 156.727C79.4596 156.961 78.9353 157.078 78.3026 157.078ZM90.2914 157.078C89.5894 157.078 88.9611 156.926 88.4064 156.623C87.8604 156.32 87.4314 155.904 87.1194 155.375C86.8074 154.846 86.6514 154.24 86.6514 153.555C86.6514 152.87 86.8074 152.264 87.1194 151.735C87.4314 151.206 87.8604 150.795 88.4064 150.5C88.9611 150.197 89.5894 150.045 90.2914 150.045C90.9154 150.045 91.4701 150.171 91.9554 150.422C92.4494 150.665 92.8307 151.029 93.0994 151.514L92.1504 152.125C91.9251 151.787 91.6477 151.54 91.3184 151.384C90.9977 151.219 90.6511 151.137 90.2784 151.137C89.8277 151.137 89.4247 151.237 89.0694 151.436C88.7141 151.635 88.4324 151.917 88.2244 152.281C88.0164 152.636 87.9124 153.061 87.9124 153.555C87.9124 154.049 88.0164 154.478 88.2244 154.842C88.4324 155.206 88.7141 155.488 89.0694 155.687C89.4247 155.886 89.8277 155.986 90.2784 155.986C90.6511 155.986 90.9977 155.908 91.3184 155.752C91.6477 155.587 91.9251 155.336 92.1504 154.998L93.0994 155.596C92.8307 156.073 92.4494 156.441 91.9554 156.701C91.4701 156.952 90.9154 157.078 90.2914 157.078ZM97.4346 157.078C96.7413 157.078 96.1259 156.926 95.5886 156.623C95.0513 156.32 94.6266 155.904 94.3146 155.375C94.0026 154.838 93.8466 154.231 93.8466 153.555C93.8466 152.87 94.0026 152.264 94.3146 151.735C94.6266 151.206 95.0513 150.795 95.5886 150.5C96.1259 150.197 96.7413 150.045 97.4346 150.045C98.1193 150.045 98.7303 150.197 99.2676 150.5C99.8136 150.795 100.238 151.206 100.542 151.735C100.854 152.255 101.01 152.862 101.01 153.555C101.01 154.24 100.854 154.846 100.542 155.375C100.238 155.904 99.8136 156.32 99.2676 156.623C98.7303 156.926 98.1193 157.078 97.4346 157.078ZM97.4346 155.986C97.8766 155.986 98.2709 155.886 98.6176 155.687C98.9729 155.488 99.2503 155.206 99.4496 154.842C99.6489 154.469 99.7486 154.04 99.7486 153.555C99.7486 153.061 99.6489 152.636 99.4496 152.281C99.2503 151.917 98.9729 151.635 98.6176 151.436C98.2709 151.237 97.8766 151.137 97.4346 151.137C96.9926 151.137 96.5983 151.237 96.2516 151.436C95.9049 151.635 95.6276 151.917 95.4196 152.281C95.2116 152.636 95.1076 153.061 95.1076 153.555C95.1076 154.04 95.2116 154.469 95.4196 154.842C95.6276 155.206 95.9049 155.488 96.2516 155.687C96.5983 155.886 96.9926 155.986 97.4346 155.986ZM111.225 150.045C111.779 150.045 112.269 150.153 112.694 150.37C113.118 150.587 113.448 150.916 113.682 151.358C113.924 151.8 114.046 152.359 114.046 153.035V157H112.798V153.178C112.798 152.511 112.642 152.008 112.33 151.67C112.018 151.332 111.58 151.163 111.017 151.163C110.601 151.163 110.237 151.25 109.925 151.423C109.613 151.596 109.37 151.852 109.197 152.19C109.032 152.528 108.95 152.948 108.95 153.451V157H107.702V153.178C107.702 152.511 107.546 152.008 107.234 151.67C106.93 151.332 106.493 151.163 105.921 151.163C105.513 151.163 105.154 151.25 104.842 151.423C104.53 151.596 104.287 151.852 104.114 152.19C103.94 152.528 103.854 152.948 103.854 153.451V157H102.606V150.11H103.802V151.943L103.607 151.475C103.823 151.024 104.157 150.673 104.608 150.422C105.058 150.171 105.583 150.045 106.181 150.045C106.839 150.045 107.407 150.21 107.884 150.539C108.36 150.86 108.672 151.349 108.82 152.008L108.313 151.8C108.521 151.271 108.885 150.847 109.405 150.526C109.925 150.205 110.531 150.045 111.225 150.045ZM119.865 157.078C119.293 157.078 118.769 156.948 118.292 156.688C117.824 156.419 117.447 156.025 117.161 155.505C116.884 154.985 116.745 154.335 116.745 153.555C116.745 152.775 116.879 152.125 117.148 151.605C117.425 151.085 117.798 150.695 118.266 150.435C118.743 150.175 119.276 150.045 119.865 150.045C120.541 150.045 121.139 150.192 121.659 150.487C122.179 150.782 122.591 151.193 122.894 151.722C123.197 152.242 123.349 152.853 123.349 153.555C123.349 154.257 123.197 154.872 122.894 155.401C122.591 155.93 122.179 156.341 121.659 156.636C121.139 156.931 120.541 157.078 119.865 157.078ZM116.212 159.522V150.11H117.408V151.969L117.33 153.568L117.46 155.167V159.522H116.212ZM119.761 155.986C120.203 155.986 120.597 155.886 120.944 155.687C121.299 155.488 121.577 155.206 121.776 154.842C121.984 154.469 122.088 154.04 122.088 153.555C122.088 153.061 121.984 152.636 121.776 152.281C121.577 151.917 121.299 151.635 120.944 151.436C120.597 151.237 120.203 151.137 119.761 151.137C119.328 151.137 118.933 151.237 118.578 151.436C118.231 151.635 117.954 151.917 117.746 152.281C117.547 152.636 117.447 153.061 117.447 153.555C117.447 154.04 117.547 154.469 117.746 154.842C117.954 155.206 118.231 155.488 118.578 155.687C118.933 155.886 119.328 155.986 119.761 155.986ZM124.943 157V147.354H126.191V157H124.943ZM128.444 157V150.11H129.692V157H128.444ZM129.068 148.784C128.825 148.784 128.622 148.706 128.457 148.55C128.301 148.394 128.223 148.203 128.223 147.978C128.223 147.744 128.301 147.549 128.457 147.393C128.622 147.237 128.825 147.159 129.068 147.159C129.311 147.159 129.51 147.237 129.666 147.393C129.831 147.54 129.913 147.727 129.913 147.952C129.913 148.186 129.835 148.385 129.679 148.55C129.523 148.706 129.319 148.784 129.068 148.784ZM140.564 150.045C141.119 150.045 141.608 150.153 142.033 150.37C142.458 150.587 142.787 150.916 143.021 151.358C143.264 151.8 143.385 152.359 143.385 153.035V157H142.137V153.178C142.137 152.511 141.981 152.008 141.669 151.67C141.357 151.332 140.919 151.163 140.356 151.163C139.94 151.163 139.576 151.25 139.264 151.423C138.952 151.596 138.709 151.852 138.536 152.19C138.371 152.528 138.289 152.948 138.289 153.451V157H137.041V153.178C137.041 152.511 136.885 152.008 136.573 151.67C136.27 151.332 135.832 151.163 135.26 151.163C134.853 151.163 134.493 151.25 134.181 151.423C133.869 151.596 133.626 151.852 133.453 152.19C133.28 152.528 133.193 152.948 133.193 153.451V157H131.945V150.11H133.141V151.943L132.946 151.475C133.163 151.024 133.496 150.673 133.947 150.422C134.398 150.171 134.922 150.045 135.52 150.045C136.179 150.045 136.746 150.21 137.223 150.539C137.7 150.86 138.012 151.349 138.159 152.008L137.652 151.8C137.86 151.271 138.224 150.847 138.744 150.526C139.264 150.205 139.871 150.045 140.564 150.045ZM148.619 157.078C147.883 157.078 147.233 156.926 146.669 156.623C146.115 156.32 145.681 155.904 145.369 155.375C145.066 154.846 144.914 154.24 144.914 153.555C144.914 152.87 145.062 152.264 145.356 151.735C145.66 151.206 146.071 150.795 146.591 150.5C147.12 150.197 147.714 150.045 148.372 150.045C149.04 150.045 149.629 150.192 150.14 150.487C150.652 150.782 151.05 151.198 151.336 151.735C151.631 152.264 151.778 152.883 151.778 153.594C151.778 153.646 151.774 153.707 151.765 153.776C151.765 153.845 151.761 153.91 151.752 153.971H145.889V153.074H151.102L150.595 153.386C150.604 152.944 150.513 152.55 150.322 152.203C150.132 151.856 149.867 151.588 149.529 151.397C149.2 151.198 148.814 151.098 148.372 151.098C147.939 151.098 147.553 151.198 147.215 151.397C146.877 151.588 146.613 151.861 146.422 152.216C146.232 152.563 146.136 152.961 146.136 153.412V153.62C146.136 154.079 146.24 154.491 146.448 154.855C146.665 155.21 146.964 155.488 147.345 155.687C147.727 155.886 148.164 155.986 148.658 155.986C149.066 155.986 149.434 155.917 149.763 155.778C150.101 155.639 150.396 155.431 150.647 155.154L151.336 155.96C151.024 156.324 150.634 156.601 150.166 156.792C149.707 156.983 149.191 157.078 148.619 157.078ZM157.06 150.045C157.624 150.045 158.118 150.153 158.542 150.37C158.976 150.587 159.314 150.916 159.556 151.358C159.799 151.8 159.92 152.359 159.92 153.035V157H158.672V153.178C158.672 152.511 158.508 152.008 158.178 151.67C157.858 151.332 157.403 151.163 156.813 151.163C156.371 151.163 155.986 151.25 155.656 151.423C155.327 151.596 155.071 151.852 154.889 152.19C154.716 152.528 154.629 152.948 154.629 153.451V157H153.381V150.11H154.577V151.969L154.382 151.475C154.608 151.024 154.954 150.673 155.422 150.422C155.89 150.171 156.436 150.045 157.06 150.045ZM164.466 157.078C163.773 157.078 163.235 156.892 162.854 156.519C162.473 156.146 162.282 155.613 162.282 154.92V148.602H163.53V154.868C163.53 155.241 163.621 155.527 163.803 155.726C163.994 155.925 164.262 156.025 164.609 156.025C164.999 156.025 165.324 155.917 165.584 155.7L165.974 156.597C165.783 156.762 165.554 156.883 165.285 156.961C165.025 157.039 164.752 157.078 164.466 157.078ZM161.112 151.137V150.11H165.506V151.137H161.112ZM171.63 157V155.544L171.565 155.271V152.788C171.565 152.259 171.409 151.852 171.097 151.566C170.793 151.271 170.334 151.124 169.719 151.124C169.311 151.124 168.913 151.193 168.523 151.332C168.133 151.462 167.803 151.64 167.535 151.865L167.015 150.929C167.37 150.643 167.795 150.426 168.289 150.279C168.791 150.123 169.316 150.045 169.862 150.045C170.806 150.045 171.534 150.275 172.046 150.734C172.557 151.193 172.813 151.895 172.813 152.84V157H171.63ZM169.368 157.078C168.856 157.078 168.406 156.991 168.016 156.818C167.634 156.645 167.34 156.406 167.132 156.103C166.924 155.791 166.82 155.44 166.82 155.05C166.82 154.677 166.906 154.339 167.08 154.036C167.262 153.733 167.552 153.49 167.951 153.308C168.358 153.126 168.904 153.035 169.589 153.035H171.773V153.932H169.641C169.017 153.932 168.596 154.036 168.38 154.244C168.163 154.452 168.055 154.703 168.055 154.998C168.055 155.336 168.189 155.609 168.458 155.817C168.726 156.016 169.099 156.116 169.576 156.116C170.044 156.116 170.451 156.012 170.798 155.804C171.153 155.596 171.409 155.293 171.565 154.894L171.812 155.752C171.647 156.159 171.357 156.484 170.941 156.727C170.525 156.961 170 157.078 169.368 157.078ZM174.992 157V150.11H176.188V151.982L176.071 151.514C176.262 151.037 176.583 150.673 177.033 150.422C177.484 150.171 178.039 150.045 178.697 150.045V151.254C178.645 151.245 178.593 151.241 178.541 151.241C178.498 151.241 178.455 151.241 178.411 151.241C177.744 151.241 177.215 151.44 176.825 151.839C176.435 152.238 176.24 152.814 176.24 153.568V157H174.992ZM180.684 159.6C180.354 159.6 180.034 159.544 179.722 159.431C179.41 159.327 179.141 159.171 178.916 158.963L179.449 158.027C179.622 158.192 179.813 158.317 180.021 158.404C180.229 158.491 180.45 158.534 180.684 158.534C180.987 158.534 181.238 158.456 181.438 158.3C181.637 158.144 181.823 157.867 181.997 157.468L182.426 156.519L182.556 156.363L185.26 150.11H186.482L183.141 157.689C182.941 158.174 182.716 158.556 182.465 158.833C182.222 159.11 181.953 159.305 181.659 159.418C181.364 159.539 181.039 159.6 180.684 159.6ZM182.322 157.221L179.176 150.11H180.476L183.154 156.246L182.322 157.221ZM193.894 159.6C193.261 159.6 192.646 159.509 192.048 159.327C191.458 159.154 190.977 158.902 190.605 158.573L191.203 157.611C191.523 157.888 191.918 158.105 192.386 158.261C192.854 158.426 193.343 158.508 193.855 158.508C194.669 158.508 195.267 158.317 195.649 157.936C196.03 157.555 196.221 156.974 196.221 156.194V154.738L196.351 153.373L196.286 151.995V150.11H197.469V156.064C197.469 157.277 197.165 158.17 196.559 158.742C195.952 159.314 195.064 159.6 193.894 159.6ZM193.738 156.714C193.07 156.714 192.472 156.575 191.944 156.298C191.424 156.012 191.008 155.618 190.696 155.115C190.392 154.612 190.241 154.032 190.241 153.373C190.241 152.706 190.392 152.125 190.696 151.631C191.008 151.128 191.424 150.738 191.944 150.461C192.472 150.184 193.07 150.045 193.738 150.045C194.327 150.045 194.864 150.166 195.35 150.409C195.835 150.643 196.221 151.007 196.507 151.501C196.801 151.995 196.949 152.619 196.949 153.373C196.949 154.118 196.801 154.738 196.507 155.232C196.221 155.726 195.835 156.099 195.35 156.35C194.864 156.593 194.327 156.714 193.738 156.714ZM193.881 155.622C194.34 155.622 194.747 155.527 195.103 155.336C195.458 155.145 195.735 154.881 195.935 154.543C196.143 154.205 196.247 153.815 196.247 153.373C196.247 152.931 196.143 152.541 195.935 152.203C195.735 151.865 195.458 151.605 195.103 151.423C194.747 151.232 194.34 151.137 193.881 151.137C193.421 151.137 193.01 151.232 192.646 151.423C192.29 151.605 192.009 151.865 191.801 152.203C191.601 152.541 191.502 152.931 191.502 153.373C191.502 153.815 191.601 154.205 191.801 154.543C192.009 154.881 192.29 155.145 192.646 155.336C193.01 155.527 193.421 155.622 193.881 155.622ZM199.723 157V150.11H200.971V157H199.723ZM200.347 148.784C200.104 148.784 199.901 148.706 199.736 148.55C199.58 148.394 199.502 148.203 199.502 147.978C199.502 147.744 199.58 147.549 199.736 147.393C199.901 147.237 200.104 147.159 200.347 147.159C200.59 147.159 200.789 147.237 200.945 147.393C201.11 147.54 201.192 147.727 201.192 147.952C201.192 148.186 201.114 148.385 200.958 148.55C200.802 148.706 200.598 148.784 200.347 148.784ZM203.406 157V149.499C203.406 148.823 203.601 148.286 203.991 147.887C204.39 147.48 204.953 147.276 205.681 147.276C205.95 147.276 206.205 147.311 206.448 147.38C206.699 147.441 206.912 147.54 207.085 147.679L206.708 148.628C206.578 148.524 206.431 148.446 206.266 148.394C206.101 148.333 205.928 148.303 205.746 148.303C205.382 148.303 205.105 148.407 204.914 148.615C204.723 148.814 204.628 149.113 204.628 149.512V150.435L204.654 151.007V157H203.406ZM202.236 151.137V150.11H206.63V151.137H202.236ZM210.043 157.078C209.35 157.078 208.812 156.892 208.431 156.519C208.05 156.146 207.859 155.613 207.859 154.92V148.602H209.107V154.868C209.107 155.241 209.198 155.527 209.38 155.726C209.571 155.925 209.839 156.025 210.186 156.025C210.576 156.025 210.901 155.917 211.161 155.7L211.551 156.597C211.36 156.762 211.131 156.883 210.862 156.961C210.602 157.039 210.329 157.078 210.043 157.078ZM206.689 151.137V150.11H211.083V151.137H206.689ZM217.747 157L215.186 150.11H216.369L218.644 156.35H218.085L220.451 150.11H221.504L223.818 156.35H223.272L225.599 150.11H226.717L224.143 157H222.947L220.776 151.306H221.14L218.943 157H217.747ZM230.614 157.078C229.921 157.078 229.305 156.926 228.768 156.623C228.231 156.32 227.806 155.904 227.494 155.375C227.182 154.838 227.026 154.231 227.026 153.555C227.026 152.87 227.182 152.264 227.494 151.735C227.806 151.206 228.231 150.795 228.768 150.5C229.305 150.197 229.921 150.045 230.614 150.045C231.299 150.045 231.91 150.197 232.447 150.5C232.993 150.795 233.418 151.206 233.721 151.735C234.033 152.255 234.189 152.862 234.189 153.555C234.189 154.24 234.033 154.846 233.721 155.375C233.418 155.904 232.993 156.32 232.447 156.623C231.91 156.926 231.299 157.078 230.614 157.078ZM230.614 155.986C231.056 155.986 231.45 155.886 231.797 155.687C232.152 155.488 232.43 155.206 232.629 154.842C232.828 154.469 232.928 154.04 232.928 153.555C232.928 153.061 232.828 152.636 232.629 152.281C232.43 151.917 232.152 151.635 231.797 151.436C231.45 151.237 231.056 151.137 230.614 151.137C230.172 151.137 229.778 151.237 229.431 151.436C229.084 151.635 228.807 151.917 228.599 152.281C228.391 152.636 228.287 153.061 228.287 153.555C228.287 154.04 228.391 154.469 228.599 154.842C228.807 155.206 229.084 155.488 229.431 155.687C229.778 155.886 230.172 155.986 230.614 155.986ZM235.785 157V150.11H236.981V151.982L236.864 151.514C237.055 151.037 237.375 150.673 237.826 150.422C238.277 150.171 238.831 150.045 239.49 150.045V151.254C239.438 151.245 239.386 151.241 239.334 151.241C239.291 151.241 239.247 151.241 239.204 151.241C238.537 151.241 238.008 151.44 237.618 151.839C237.228 152.238 237.033 152.814 237.033 153.568V157H235.785ZM243.543 157.078C242.85 157.078 242.313 156.892 241.931 156.519C241.55 156.146 241.359 155.613 241.359 154.92V148.602H242.607V154.868C242.607 155.241 242.698 155.527 242.88 155.726C243.071 155.925 243.34 156.025 243.686 156.025C244.076 156.025 244.401 155.917 244.661 155.7L245.051 156.597C244.861 156.762 244.631 156.883 244.362 156.961C244.102 157.039 243.829 157.078 243.543 157.078ZM240.189 151.137V150.11H244.583V151.137H240.189ZM250.109 150.045C250.673 150.045 251.167 150.153 251.591 150.37C252.025 150.587 252.363 150.916 252.605 151.358C252.848 151.8 252.969 152.359 252.969 153.035V157H251.721V153.178C251.721 152.511 251.557 152.008 251.227 151.67C250.907 151.332 250.452 151.163 249.862 151.163C249.42 151.163 249.035 151.25 248.705 151.423C248.376 151.596 248.12 151.852 247.938 152.19C247.765 152.528 247.678 152.948 247.678 153.451V157H246.43V147.354H247.678V151.969L247.431 151.475C247.657 151.024 248.003 150.673 248.471 150.422C248.939 150.171 249.485 150.045 250.109 150.045ZM261.019 158.56V146.34H261.851V158.56H261.019ZM261.344 157.104C260.651 157.104 259.988 157 259.355 156.792C258.722 156.575 258.224 156.298 257.86 155.96L258.341 154.946C258.688 155.249 259.13 155.501 259.667 155.7C260.204 155.899 260.763 155.999 261.344 155.999C261.873 155.999 262.302 155.938 262.631 155.817C262.96 155.696 263.203 155.531 263.359 155.323C263.515 155.106 263.593 154.864 263.593 154.595C263.593 154.283 263.489 154.032 263.281 153.841C263.082 153.65 262.817 153.499 262.488 153.386C262.167 153.265 261.812 153.161 261.422 153.074C261.032 152.987 260.638 152.888 260.239 152.775C259.849 152.654 259.489 152.502 259.16 152.32C258.839 152.138 258.579 151.895 258.38 151.592C258.181 151.28 258.081 150.881 258.081 150.396C258.081 149.928 258.202 149.499 258.445 149.109C258.696 148.71 259.078 148.394 259.589 148.16C260.109 147.917 260.768 147.796 261.565 147.796C262.094 147.796 262.618 147.865 263.138 148.004C263.658 148.143 264.109 148.342 264.49 148.602L264.061 149.642C263.671 149.382 263.259 149.196 262.826 149.083C262.393 148.962 261.972 148.901 261.565 148.901C261.054 148.901 260.633 148.966 260.304 149.096C259.975 149.226 259.732 149.399 259.576 149.616C259.429 149.833 259.355 150.075 259.355 150.344C259.355 150.665 259.455 150.92 259.654 151.111C259.862 151.302 260.126 151.453 260.447 151.566C260.776 151.679 261.136 151.783 261.526 151.878C261.916 151.965 262.306 152.064 262.696 152.177C263.095 152.29 263.454 152.437 263.775 152.619C264.104 152.801 264.369 153.044 264.568 153.347C264.767 153.65 264.867 154.04 264.867 154.517C264.867 154.976 264.741 155.405 264.49 155.804C264.239 156.194 263.849 156.51 263.32 156.753C262.8 156.987 262.141 157.104 261.344 157.104ZM265.752 157V156.116L269.457 152.541C269.787 152.229 270.029 151.956 270.185 151.722C270.35 151.479 270.458 151.258 270.51 151.059C270.571 150.851 270.601 150.652 270.601 150.461C270.601 149.993 270.437 149.625 270.107 149.356C269.778 149.087 269.297 148.953 268.664 148.953C268.179 148.953 267.741 149.035 267.351 149.2C266.961 149.356 266.623 149.603 266.337 149.941L265.453 149.174C265.8 148.732 266.264 148.394 266.844 148.16C267.434 147.917 268.079 147.796 268.781 147.796C269.414 147.796 269.964 147.9 270.432 148.108C270.9 148.307 271.26 148.598 271.511 148.979C271.771 149.36 271.901 149.811 271.901 150.331C271.901 150.626 271.862 150.916 271.784 151.202C271.706 151.488 271.559 151.791 271.342 152.112C271.126 152.433 270.814 152.792 270.406 153.191L267.104 156.376L266.792 155.869H272.291V157H265.752ZM276.935 157.104C276.225 157.104 275.588 156.922 275.024 156.558C274.47 156.194 274.028 155.665 273.698 154.972C273.378 154.279 273.217 153.438 273.217 152.45C273.217 151.462 273.378 150.621 273.698 149.928C274.028 149.235 274.47 148.706 275.024 148.342C275.588 147.978 276.225 147.796 276.935 147.796C277.637 147.796 278.27 147.978 278.833 148.342C279.397 148.706 279.839 149.235 280.159 149.928C280.48 150.621 280.64 151.462 280.64 152.45C280.64 153.438 280.48 154.279 280.159 154.972C279.839 155.665 279.397 156.194 278.833 156.558C278.27 156.922 277.637 157.104 276.935 157.104ZM276.935 155.947C277.412 155.947 277.828 155.817 278.183 155.557C278.547 155.297 278.829 154.907 279.028 154.387C279.236 153.867 279.34 153.221 279.34 152.45C279.34 151.679 279.236 151.033 279.028 150.513C278.829 149.993 278.547 149.603 278.183 149.343C277.828 149.083 277.412 148.953 276.935 148.953C276.459 148.953 276.038 149.083 275.674 149.343C275.31 149.603 275.024 149.993 274.816 150.513C274.617 151.033 274.517 151.679 274.517 152.45C274.517 153.221 274.617 153.867 274.816 154.387C275.024 154.907 275.31 155.297 275.674 155.557C276.038 155.817 276.459 155.947 276.935 155.947ZM289.956 157V155.544L289.891 155.271V152.788C289.891 152.259 289.735 151.852 289.423 151.566C289.119 151.271 288.66 151.124 288.045 151.124C287.637 151.124 287.239 151.193 286.849 151.332C286.459 151.462 286.129 151.64 285.861 151.865L285.341 150.929C285.696 150.643 286.121 150.426 286.615 150.279C287.117 150.123 287.642 150.045 288.188 150.045C289.132 150.045 289.86 150.275 290.372 150.734C290.883 151.193 291.139 151.895 291.139 152.84V157H289.956ZM287.694 157.078C287.182 157.078 286.732 156.991 286.342 156.818C285.96 156.645 285.666 156.406 285.458 156.103C285.25 155.791 285.146 155.44 285.146 155.05C285.146 154.677 285.232 154.339 285.406 154.036C285.588 153.733 285.878 153.49 286.277 153.308C286.684 153.126 287.23 153.035 287.915 153.035H290.099V153.932H287.967C287.343 153.932 286.922 154.036 286.706 154.244C286.489 154.452 286.381 154.703 286.381 154.998C286.381 155.336 286.515 155.609 286.784 155.817C287.052 156.016 287.425 156.116 287.902 156.116C288.37 156.116 288.777 156.012 289.124 155.804C289.479 155.596 289.735 155.293 289.891 154.894L290.138 155.752C289.973 156.159 289.683 156.484 289.267 156.727C288.851 156.961 288.326 157.078 287.694 157.078ZM295.684 157.078C294.991 157.078 294.453 156.892 294.072 156.519C293.691 156.146 293.5 155.613 293.5 154.92V148.602H294.748V154.868C294.748 155.241 294.839 155.527 295.021 155.726C295.212 155.925 295.48 156.025 295.827 156.025C296.217 156.025 296.542 155.917 296.802 155.7L297.192 156.597C297.001 156.762 296.772 156.883 296.503 156.961C296.243 157.039 295.97 157.078 295.684 157.078ZM292.33 151.137V150.11H296.724V151.137H292.33ZM304.935 157.078C304.233 157.078 303.605 156.926 303.05 156.623C302.504 156.32 302.075 155.904 301.763 155.375C301.451 154.846 301.295 154.24 301.295 153.555C301.295 152.87 301.451 152.264 301.763 151.735C302.075 151.206 302.504 150.795 303.05 150.5C303.605 150.197 304.233 150.045 304.935 150.045C305.559 150.045 306.114 150.171 306.599 150.422C307.093 150.665 307.474 151.029 307.743 151.514L306.794 152.125C306.569 151.787 306.291 151.54 305.962 151.384C305.641 151.219 305.295 151.137 304.922 151.137C304.471 151.137 304.068 151.237 303.713 151.436C303.358 151.635 303.076 151.917 302.868 152.281C302.66 152.636 302.556 153.061 302.556 153.555C302.556 154.049 302.66 154.478 302.868 154.842C303.076 155.206 303.358 155.488 303.713 155.687C304.068 155.886 304.471 155.986 304.922 155.986C305.295 155.986 305.641 155.908 305.962 155.752C306.291 155.587 306.569 155.336 306.794 154.998L307.743 155.596C307.474 156.073 307.093 156.441 306.599 156.701C306.114 156.952 305.559 157.078 304.935 157.078ZM312.819 150.045C313.382 150.045 313.876 150.153 314.301 150.37C314.734 150.587 315.072 150.916 315.315 151.358C315.558 151.8 315.679 152.359 315.679 153.035V157H314.431V153.178C314.431 152.511 314.266 152.008 313.937 151.67C313.616 151.332 313.161 151.163 312.572 151.163C312.13 151.163 311.744 151.25 311.415 151.423C311.086 151.596 310.83 151.852 310.648 152.19C310.475 152.528 310.388 152.948 310.388 153.451V157H309.14V147.354H310.388V151.969L310.141 151.475C310.366 151.024 310.713 150.673 311.181 150.422C311.649 150.171 312.195 150.045 312.819 150.045ZM320.927 157.078C320.19 157.078 319.54 156.926 318.977 156.623C318.422 156.32 317.989 155.904 317.677 155.375C317.373 154.846 317.222 154.24 317.222 153.555C317.222 152.87 317.369 152.264 317.664 151.735C317.967 151.206 318.379 150.795 318.899 150.5C319.427 150.197 320.021 150.045 320.68 150.045C321.347 150.045 321.936 150.192 322.448 150.487C322.959 150.782 323.358 151.198 323.644 151.735C323.938 152.264 324.086 152.883 324.086 153.594C324.086 153.646 324.081 153.707 324.073 153.776C324.073 153.845 324.068 153.91 324.06 153.971H318.197V153.074H323.41L322.903 153.386C322.911 152.944 322.82 152.55 322.63 152.203C322.439 151.856 322.175 151.588 321.837 151.397C321.507 151.198 321.122 151.098 320.68 151.098C320.246 151.098 319.861 151.198 319.523 151.397C319.185 151.588 318.92 151.861 318.73 152.216C318.539 152.563 318.444 152.961 318.444 153.412V153.62C318.444 154.079 318.548 154.491 318.756 154.855C318.972 155.21 319.271 155.488 319.653 155.687C320.034 155.886 320.472 155.986 320.966 155.986C321.373 155.986 321.741 155.917 322.071 155.778C322.409 155.639 322.703 155.431 322.955 155.154L323.644 155.96C323.332 156.324 322.942 156.601 322.474 156.792C322.014 156.983 321.499 157.078 320.927 157.078ZM328.692 157.078C327.99 157.078 327.361 156.926 326.807 156.623C326.261 156.32 325.832 155.904 325.52 155.375C325.208 154.846 325.052 154.24 325.052 153.555C325.052 152.87 325.208 152.264 325.52 151.735C325.832 151.206 326.261 150.795 326.807 150.5C327.361 150.197 327.99 150.045 328.692 150.045C329.316 150.045 329.87 150.171 330.356 150.422C330.85 150.665 331.231 151.029 331.5 151.514L330.551 152.125C330.325 151.787 330.048 151.54 329.719 151.384C329.398 151.219 329.051 151.137 328.679 151.137C328.228 151.137 327.825 151.237 327.47 151.436C327.114 151.635 326.833 151.917 326.625 152.281C326.417 152.636 326.313 153.061 326.313 153.555C326.313 154.049 326.417 154.478 326.625 154.842C326.833 155.206 327.114 155.488 327.47 155.687C327.825 155.886 328.228 155.986 328.679 155.986C329.051 155.986 329.398 155.908 329.719 155.752C330.048 155.587 330.325 155.336 330.551 154.998L331.5 155.596C331.231 156.073 330.85 156.441 330.356 156.701C329.87 156.952 329.316 157.078 328.692 157.078ZM333.91 155.336L333.936 153.737L337.901 150.11H339.409L336.367 153.1L335.691 153.672L333.91 155.336ZM332.896 157V147.354H334.144V157H332.896ZM338.161 157L335.457 153.646L336.263 152.645L339.695 157H338.161ZM343.449 157.078C342.756 157.078 342.14 156.926 341.603 156.623C341.066 156.32 340.641 155.904 340.329 155.375C340.017 154.838 339.861 154.231 339.861 153.555C339.861 152.87 340.017 152.264 340.329 151.735C340.641 151.206 341.066 150.795 341.603 150.5C342.14 150.197 342.756 150.045 343.449 150.045C344.134 150.045 344.745 150.197 345.282 150.5C345.828 150.795 346.253 151.206 346.556 151.735C346.868 152.255 347.024 152.862 347.024 153.555C347.024 154.24 346.868 154.846 346.556 155.375C346.253 155.904 345.828 156.32 345.282 156.623C344.745 156.926 344.134 157.078 343.449 157.078ZM343.449 155.986C343.891 155.986 344.285 155.886 344.632 155.687C344.987 155.488 345.265 155.206 345.464 154.842C345.663 154.469 345.763 154.04 345.763 153.555C345.763 153.061 345.663 152.636 345.464 152.281C345.265 151.917 344.987 151.635 344.632 151.436C344.285 151.237 343.891 151.137 343.449 151.137C343.007 151.137 342.613 151.237 342.266 151.436C341.919 151.635 341.642 151.917 341.434 152.281C341.226 152.636 341.122 153.061 341.122 153.555C341.122 154.04 341.226 154.469 341.434 154.842C341.642 155.206 341.919 155.488 342.266 155.687C342.613 155.886 343.007 155.986 343.449 155.986ZM351.519 157.078C350.93 157.078 350.41 156.97 349.959 156.753C349.517 156.536 349.17 156.207 348.919 155.765C348.676 155.314 348.555 154.751 348.555 154.075V150.11H349.803V153.932C349.803 154.608 349.963 155.115 350.284 155.453C350.613 155.791 351.073 155.96 351.662 155.96C352.095 155.96 352.472 155.873 352.793 155.7C353.114 155.518 353.361 155.258 353.534 154.92C353.707 154.573 353.794 154.157 353.794 153.672V150.11H355.042V157H353.859V155.141L354.054 155.635C353.829 156.094 353.491 156.45 353.04 156.701C352.589 156.952 352.082 157.078 351.519 157.078ZM359.654 157.078C358.96 157.078 358.423 156.892 358.042 156.519C357.66 156.146 357.47 155.613 357.47 154.92V148.602H358.718V154.868C358.718 155.241 358.809 155.527 358.991 155.726C359.181 155.925 359.45 156.025 359.797 156.025C360.187 156.025 360.512 155.917 360.772 155.7L361.162 156.597C360.971 156.762 360.741 156.883 360.473 156.961C360.213 157.039 359.94 157.078 359.654 157.078ZM356.3 151.137V150.11H360.694V151.137H356.3ZM362.966 157.078C362.724 157.078 362.516 156.996 362.342 156.831C362.169 156.658 362.082 156.441 362.082 156.181C362.082 155.921 362.169 155.709 362.342 155.544C362.516 155.379 362.724 155.297 362.966 155.297C363.2 155.297 363.4 155.379 363.564 155.544C363.738 155.709 363.824 155.921 363.824 156.181C363.824 156.441 363.738 156.658 363.564 156.831C363.4 156.996 363.2 157.078 362.966 157.078Z" fill="#3590E5"/>
<path d="M33.365 45V35.9H34.665V45H33.365ZM40.7564 38.045C41.3197 38.045 41.8137 38.1533 42.2384 38.37C42.6717 38.5867 43.0097 38.916 43.2524 39.358C43.4951 39.8 43.6164 40.359 43.6164 41.035V45H42.3684V41.178C42.3684 40.5107 42.2037 40.008 41.8744 39.67C41.5537 39.332 41.0987 39.163 40.5094 39.163C40.0674 39.163 39.6817 39.2497 39.3524 39.423C39.0231 39.5963 38.7674 39.852 38.5854 40.19C38.4121 40.528 38.3254 40.9483 38.3254 41.451V45H37.0774V38.11H38.2734V39.969L38.0784 39.475C38.3037 39.0243 38.6504 38.6733 39.1184 38.422C39.5864 38.1707 40.1324 38.045 40.7564 38.045ZM51.9913 45.104C51.2979 45.104 50.6349 45 50.0023 44.792C49.3696 44.5753 48.8713 44.298 48.5073 43.96L48.9883 42.946C49.3349 43.2493 49.7769 43.5007 50.3143 43.7C50.8516 43.8993 51.4106 43.999 51.9913 43.999C52.5199 43.999 52.9489 43.9383 53.2783 43.817C53.6076 43.6957 53.8503 43.531 54.0063 43.323C54.1623 43.1063 54.2403 42.8637 54.2403 42.595C54.2403 42.283 54.1363 42.0317 53.9283 41.841C53.7289 41.6503 53.4646 41.4987 53.1353 41.386C52.8146 41.2647 52.4593 41.1607 52.0693 41.074C51.6793 40.9873 51.2849 40.8877 50.8863 40.775C50.4963 40.6537 50.1366 40.502 49.8073 40.32C49.4866 40.138 49.2266 39.8953 49.0273 39.592C48.8279 39.28 48.7283 38.8813 48.7283 38.396C48.7283 37.928 48.8496 37.499 49.0923 37.109C49.3436 36.7103 49.7249 36.394 50.2363 36.16C50.7563 35.9173 51.4149 35.796 52.2123 35.796C52.7409 35.796 53.2653 35.8653 53.7853 36.004C54.3053 36.1427 54.7559 36.342 55.1373 36.602L54.7083 37.642C54.3183 37.382 53.9066 37.1957 53.4733 37.083C53.0399 36.9617 52.6196 36.901 52.2123 36.901C51.7009 36.901 51.2806 36.966 50.9513 37.096C50.6219 37.226 50.3793 37.3993 50.2233 37.616C50.0759 37.8327 50.0023 38.0753 50.0023 38.344C50.0023 38.6647 50.1019 38.9203 50.3013 39.111C50.5093 39.3017 50.7736 39.4533 51.0943 39.566C51.4236 39.6787 51.7833 39.7827 52.1733 39.878C52.5633 39.9647 52.9533 40.0643 53.3433 40.177C53.7419 40.2897 54.1016 40.437 54.4223 40.619C54.7516 40.801 55.0159 41.0437 55.2153 41.347C55.4146 41.6503 55.5143 42.0403 55.5143 42.517C55.5143 42.9763 55.3886 43.4053 55.1373 43.804C54.8859 44.194 54.4959 44.5103 53.9673 44.753C53.4473 44.987 52.7886 45.104 51.9913 45.104ZM59.4675 45.078C58.7741 45.078 58.2368 44.8917 57.8555 44.519C57.4741 44.1463 57.2835 43.6133 57.2835 42.92V36.602H58.5315V42.868C58.5315 43.2407 58.6225 43.5267 58.8045 43.726C58.9951 43.9253 59.2638 44.025 59.6105 44.025C60.0005 44.025 60.3255 43.9167 60.5855 43.7L60.9755 44.597C60.7848 44.7617 60.5551 44.883 60.2865 44.961C60.0265 45.039 59.7535 45.078 59.4675 45.078ZM56.1135 39.137V38.11H60.5075V39.137H56.1135ZM65.0768 45.078C64.3834 45.078 63.7681 44.9263 63.2308 44.623C62.6934 44.3197 62.2688 43.9037 61.9568 43.375C61.6448 42.8377 61.4888 42.231 61.4888 41.555C61.4888 40.8703 61.6448 40.2637 61.9568 39.735C62.2688 39.2063 62.6934 38.7947 63.2308 38.5C63.7681 38.1967 64.3834 38.045 65.0768 38.045C65.7614 38.045 66.3724 38.1967 66.9098 38.5C67.4558 38.7947 67.8804 39.2063 68.1838 39.735C68.4958 40.255 68.6518 40.8617 68.6518 41.555C68.6518 42.2397 68.4958 42.8463 68.1838 43.375C67.8804 43.9037 67.4558 44.3197 66.9098 44.623C66.3724 44.9263 65.7614 45.078 65.0768 45.078ZM65.0768 43.986C65.5188 43.986 65.9131 43.8863 66.2598 43.687C66.6151 43.4877 66.8924 43.206 67.0918 42.842C67.2911 42.4693 67.3908 42.0403 67.3908 41.555C67.3908 41.061 67.2911 40.6363 67.0918 40.281C66.8924 39.917 66.6151 39.6353 66.2598 39.436C65.9131 39.2367 65.5188 39.137 65.0768 39.137C64.6348 39.137 64.2404 39.2367 63.8938 39.436C63.5471 39.6353 63.2698 39.917 63.0618 40.281C62.8538 40.6363 62.7498 41.061 62.7498 41.555C62.7498 42.0403 62.8538 42.4693 63.0618 42.842C63.2698 43.206 63.5471 43.4877 63.8938 43.687C64.2404 43.8863 64.6348 43.986 65.0768 43.986ZM73.2507 45.078C72.5487 45.078 71.9204 44.9263 71.3657 44.623C70.8197 44.3197 70.3907 43.9037 70.0787 43.375C69.7667 42.8463 69.6107 42.2397 69.6107 41.555C69.6107 40.8703 69.7667 40.2637 70.0787 39.735C70.3907 39.2063 70.8197 38.7947 71.3657 38.5C71.9204 38.1967 72.5487 38.045 73.2507 38.045C73.8747 38.045 74.4294 38.1707 74.9147 38.422C75.4087 38.6647 75.7901 39.0287 76.0587 39.514L75.1097 40.125C74.8844 39.787 74.6071 39.54 74.2777 39.384C73.9571 39.2193 73.6104 39.137 73.2377 39.137C72.7871 39.137 72.3841 39.2367 72.0287 39.436C71.6734 39.6353 71.3917 39.917 71.1837 40.281C70.9757 40.6363 70.8717 41.061 70.8717 41.555C70.8717 42.049 70.9757 42.478 71.1837 42.842C71.3917 43.206 71.6734 43.4877 72.0287 43.687C72.3841 43.8863 72.7871 43.986 73.2377 43.986C73.6104 43.986 73.9571 43.908 74.2777 43.752C74.6071 43.5873 74.8844 43.336 75.1097 42.998L76.0587 43.596C75.7901 44.0727 75.4087 44.441 74.9147 44.701C74.4294 44.9523 73.8747 45.078 73.2507 45.078ZM78.4696 43.336L78.4956 41.737L82.4606 38.11H83.9686L80.9266 41.1L80.2506 41.672L78.4696 43.336ZM77.4556 45V35.354H78.7036V45H77.4556ZM82.7206 45L80.0166 41.646L80.8226 40.645L84.2546 45H82.7206Z" fill="#20BC69"/>
<path d="M35.458 128L32.416 118.9H33.755L36.55 127.298H35.874L38.773 118.9H39.969L42.803 127.298H42.153L44.987 118.9H46.222L43.18 128H41.815L39.163 120.213H39.514L36.849 128H35.458ZM51.2568 128V126.544L51.1918 126.271V123.788C51.1918 123.259 51.0358 122.852 50.7238 122.566C50.4204 122.271 49.9611 122.124 49.3458 122.124C48.9384 122.124 48.5398 122.193 48.1498 122.332C47.7598 122.462 47.4304 122.64 47.1618 122.865L46.6418 121.929C46.9971 121.643 47.4218 121.426 47.9158 121.279C48.4184 121.123 48.9428 121.045 49.4888 121.045C50.4334 121.045 51.1614 121.275 51.6728 121.734C52.1841 122.193 52.4398 122.895 52.4398 123.84V128H51.2568ZM48.9948 128.078C48.4834 128.078 48.0328 127.991 47.6428 127.818C47.2614 127.645 46.9668 127.406 46.7588 127.103C46.5508 126.791 46.4468 126.44 46.4468 126.05C46.4468 125.677 46.5334 125.339 46.7068 125.036C46.8888 124.733 47.1791 124.49 47.5778 124.308C47.9851 124.126 48.5311 124.035 49.2158 124.035H51.3998V124.932H49.2678C48.6438 124.932 48.2234 125.036 48.0068 125.244C47.7901 125.452 47.6818 125.703 47.6818 125.998C47.6818 126.336 47.8161 126.609 48.0848 126.817C48.3534 127.016 48.7261 127.116 49.2028 127.116C49.6708 127.116 50.0781 127.012 50.4248 126.804C50.7801 126.596 51.0358 126.293 51.1918 125.894L51.4388 126.752C51.2741 127.159 50.9838 127.484 50.5678 127.727C50.1518 127.961 49.6274 128.078 48.9948 128.078ZM56.5953 128.078C56.0233 128.078 55.4773 128 54.9573 127.844C54.446 127.688 54.043 127.497 53.7483 127.272L54.2683 126.284C54.563 126.483 54.927 126.652 55.3603 126.791C55.7936 126.93 56.2356 126.999 56.6863 126.999C57.267 126.999 57.683 126.917 57.9343 126.752C58.1943 126.587 58.3243 126.358 58.3243 126.063C58.3243 125.846 58.2463 125.677 58.0903 125.556C57.9343 125.435 57.7263 125.344 57.4663 125.283C57.215 125.222 56.9333 125.17 56.6213 125.127C56.3093 125.075 55.9973 125.014 55.6853 124.945C55.3733 124.867 55.0873 124.763 54.8273 124.633C54.5673 124.494 54.3593 124.308 54.2033 124.074C54.0473 123.831 53.9693 123.511 53.9693 123.112C53.9693 122.696 54.0863 122.332 54.3203 122.02C54.5543 121.708 54.8836 121.47 55.3083 121.305C55.7416 121.132 56.253 121.045 56.8423 121.045C57.293 121.045 57.748 121.101 58.2073 121.214C58.6753 121.318 59.0566 121.47 59.3513 121.669L58.8183 122.657C58.5063 122.449 58.1813 122.306 57.8433 122.228C57.5053 122.15 57.1673 122.111 56.8293 122.111C56.2833 122.111 55.876 122.202 55.6073 122.384C55.3386 122.557 55.2043 122.783 55.2043 123.06C55.2043 123.294 55.2823 123.476 55.4383 123.606C55.603 123.727 55.811 123.823 56.0623 123.892C56.3223 123.961 56.6083 124.022 56.9203 124.074C57.2323 124.117 57.5443 124.178 57.8563 124.256C58.1683 124.325 58.45 124.425 58.7013 124.555C58.9613 124.685 59.1693 124.867 59.3253 125.101C59.49 125.335 59.5723 125.647 59.5723 126.037C59.5723 126.453 59.451 126.813 59.2083 127.116C58.9656 127.419 58.6233 127.658 58.1813 127.831C57.7393 127.996 57.2106 128.078 56.5953 128.078ZM66.8722 129.56V117.34H67.7042V129.56H66.8722ZM67.1972 128.104C66.5039 128.104 65.8409 128 65.2082 127.792C64.5755 127.575 64.0772 127.298 63.7132 126.96L64.1942 125.946C64.5409 126.249 64.9829 126.501 65.5202 126.7C66.0575 126.899 66.6165 126.999 67.1972 126.999C67.7259 126.999 68.1549 126.938 68.4842 126.817C68.8135 126.696 69.0562 126.531 69.2122 126.323C69.3682 126.106 69.4462 125.864 69.4462 125.595C69.4462 125.283 69.3422 125.032 69.1342 124.841C68.9349 124.65 68.6705 124.499 68.3412 124.386C68.0205 124.265 67.6652 124.161 67.2752 124.074C66.8852 123.987 66.4909 123.888 66.0922 123.775C65.7022 123.654 65.3425 123.502 65.0132 123.32C64.6925 123.138 64.4325 122.895 64.2332 122.592C64.0339 122.28 63.9342 121.881 63.9342 121.396C63.9342 120.928 64.0555 120.499 64.2982 120.109C64.5495 119.71 64.9309 119.394 65.4422 119.16C65.9622 118.917 66.6209 118.796 67.4182 118.796C67.9469 118.796 68.4712 118.865 68.9912 119.004C69.5112 119.143 69.9619 119.342 70.3432 119.602L69.9142 120.642C69.5242 120.382 69.1125 120.196 68.6792 120.083C68.2459 119.962 67.8255 119.901 67.4182 119.901C66.9069 119.901 66.4865 119.966 66.1572 120.096C65.8279 120.226 65.5852 120.399 65.4292 120.616C65.2819 120.833 65.2082 121.075 65.2082 121.344C65.2082 121.665 65.3079 121.92 65.5072 122.111C65.7152 122.302 65.9795 122.453 66.3002 122.566C66.6295 122.679 66.9892 122.783 67.3792 122.878C67.7692 122.965 68.1592 123.064 68.5492 123.177C68.9479 123.29 69.3075 123.437 69.6282 123.619C69.9575 123.801 70.2219 124.044 70.4212 124.347C70.6205 124.65 70.7202 125.04 70.7202 125.517C70.7202 125.976 70.5945 126.405 70.3432 126.804C70.0919 127.194 69.7019 127.51 69.1732 127.753C68.6532 127.987 67.9945 128.104 67.1972 128.104ZM73.1945 128L77.0555 119.446L77.3935 120.031H71.9855L72.6355 119.394V121.656H71.3875V118.9H78.2515V119.784L74.5725 128H73.1945ZM82.212 118.796C83.0353 118.796 83.7287 118.974 84.292 119.329C84.864 119.684 85.2973 120.2 85.592 120.876C85.8867 121.543 86.034 122.362 86.034 123.333C86.034 124.364 85.852 125.235 85.488 125.946C85.124 126.657 84.6213 127.194 83.98 127.558C83.3387 127.922 82.589 128.104 81.731 128.104C81.3063 128.104 80.8947 128.061 80.496 127.974C80.106 127.887 79.7637 127.753 79.469 127.571L79.963 126.557C80.2057 126.713 80.4743 126.826 80.769 126.895C81.0723 126.956 81.3887 126.986 81.718 126.986C82.6367 126.986 83.369 126.7 83.915 126.128C84.461 125.547 84.734 124.689 84.734 123.554C84.734 123.372 84.7253 123.155 84.708 122.904C84.6907 122.653 84.6517 122.406 84.591 122.163L85.02 122.605C84.8987 123.004 84.695 123.342 84.409 123.619C84.1317 123.888 83.7937 124.091 83.395 124.23C83.005 124.36 82.576 124.425 82.108 124.425C81.51 124.425 80.977 124.312 80.509 124.087C80.041 123.862 79.6727 123.545 79.404 123.138C79.1353 122.722 79.001 122.232 79.001 121.669C79.001 121.08 79.1397 120.573 79.417 120.148C79.703 119.715 80.0887 119.381 80.574 119.147C81.068 118.913 81.614 118.796 82.212 118.796ZM82.264 119.849C81.874 119.849 81.5273 119.923 81.224 120.07C80.9207 120.217 80.6823 120.421 80.509 120.681C80.3443 120.941 80.262 121.253 80.262 121.617C80.262 122.154 80.4483 122.583 80.821 122.904C81.1937 123.216 81.6963 123.372 82.329 123.372C82.745 123.372 83.109 123.294 83.421 123.138C83.7417 122.982 83.9887 122.77 84.162 122.501C84.344 122.232 84.435 121.933 84.435 121.604C84.435 121.283 84.3527 120.993 84.188 120.733C84.0233 120.473 83.7807 120.261 83.46 120.096C83.1393 119.931 82.7407 119.849 82.264 119.849ZM87.8601 128.078C87.6174 128.078 87.4094 127.996 87.2361 127.831C87.0628 127.658 86.9761 127.441 86.9761 127.181C86.9761 126.921 87.0628 126.709 87.2361 126.544C87.4094 126.379 87.6174 126.297 87.8601 126.297C88.0941 126.297 88.2934 126.379 88.4581 126.544C88.6314 126.709 88.7181 126.921 88.7181 127.181C88.7181 127.441 88.6314 127.658 88.4581 127.831C88.2934 127.996 88.0941 128.078 87.8601 128.078ZM92.7684 118.796C93.5917 118.796 94.2851 118.974 94.8484 119.329C95.4204 119.684 95.8537 120.2 96.1484 120.876C96.4431 121.543 96.5904 122.362 96.5904 123.333C96.5904 124.364 96.4084 125.235 96.0444 125.946C95.6804 126.657 95.1777 127.194 94.5364 127.558C93.8951 127.922 93.1454 128.104 92.2874 128.104C91.8627 128.104 91.4511 128.061 91.0524 127.974C90.6624 127.887 90.3201 127.753 90.0254 127.571L90.5194 126.557C90.7621 126.713 91.0307 126.826 91.3254 126.895C91.6287 126.956 91.9451 126.986 92.2744 126.986C93.1931 126.986 93.9254 126.7 94.4714 126.128C95.0174 125.547 95.2904 124.689 95.2904 123.554C95.2904 123.372 95.2817 123.155 95.2644 122.904C95.2471 122.653 95.2081 122.406 95.1474 122.163L95.5764 122.605C95.4551 123.004 95.2514 123.342 94.9654 123.619C94.6881 123.888 94.3501 124.091 93.9514 124.23C93.5614 124.36 93.1324 124.425 92.6644 124.425C92.0664 124.425 91.5334 124.312 91.0654 124.087C90.5974 123.862 90.2291 123.545 89.9604 123.138C89.6917 122.722 89.5574 122.232 89.5574 121.669C89.5574 121.08 89.6961 120.573 89.9734 120.148C90.2594 119.715 90.6451 119.381 91.1304 119.147C91.6244 118.913 92.1704 118.796 92.7684 118.796ZM92.8204 119.849C92.4304 119.849 92.0837 119.923 91.7804 120.07C91.4771 120.217 91.2387 120.421 91.0654 120.681C90.9007 120.941 90.8184 121.253 90.8184 121.617C90.8184 122.154 91.0047 122.583 91.3774 122.904C91.7501 123.216 92.2527 123.372 92.8854 123.372C93.3014 123.372 93.6654 123.294 93.9774 123.138C94.2981 122.982 94.5451 122.77 94.7184 122.501C94.9004 122.232 94.9914 121.933 94.9914 121.604C94.9914 121.283 94.9091 120.993 94.7444 120.733C94.5797 120.473 94.3371 120.261 94.0164 120.096C93.6957 119.931 93.2971 119.849 92.8204 119.849ZM100.662 118.796C101.485 118.796 102.179 118.974 102.742 119.329C103.314 119.684 103.747 120.2 104.042 120.876C104.337 121.543 104.484 122.362 104.484 123.333C104.484 124.364 104.302 125.235 103.938 125.946C103.574 126.657 103.071 127.194 102.43 127.558C101.789 127.922 101.039 128.104 100.181 128.104C99.7562 128.104 99.3445 128.061 98.9458 127.974C98.5558 127.887 98.2135 127.753 97.9188 127.571L98.4128 126.557C98.6555 126.713 98.9242 126.826 99.2188 126.895C99.5222 126.956 99.8385 126.986 100.168 126.986C101.087 126.986 101.819 126.7 102.365 126.128C102.911 125.547 103.184 124.689 103.184 123.554C103.184 123.372 103.175 123.155 103.158 122.904C103.141 122.653 103.102 122.406 103.041 122.163L103.47 122.605C103.349 123.004 103.145 123.342 102.859 123.619C102.582 123.888 102.244 124.091 101.845 124.23C101.455 124.36 101.026 124.425 100.558 124.425C99.9598 124.425 99.4268 124.312 98.9588 124.087C98.4908 123.862 98.1225 123.545 97.8538 123.138C97.5852 122.722 97.4508 122.232 97.4508 121.669C97.4508 121.08 97.5895 120.573 97.8668 120.148C98.1528 119.715 98.5385 119.381 99.0238 119.147C99.5178 118.913 100.064 118.796 100.662 118.796ZM100.714 119.849C100.324 119.849 99.9772 119.923 99.6738 120.07C99.3705 120.217 99.1322 120.421 98.9588 120.681C98.7942 120.941 98.7118 121.253 98.7118 121.617C98.7118 122.154 98.8982 122.583 99.2708 122.904C99.6435 123.216 100.146 123.372 100.779 123.372C101.195 123.372 101.559 123.294 101.871 123.138C102.192 122.982 102.439 122.77 102.612 122.501C102.794 122.232 102.885 121.933 102.885 121.604C102.885 121.283 102.803 120.993 102.638 120.733C102.473 120.473 102.231 120.261 101.91 120.096C101.589 119.931 101.191 119.849 100.714 119.849Z" fill="black"/>
<path d="M32 123.97H105.108V124.62H32V123.97Z" fill="black"/>
<path d="M120.017 128.104C119.324 128.104 118.661 128 118.028 127.792C117.395 127.575 116.897 127.298 116.533 126.96L117.014 125.946C117.361 126.249 117.803 126.501 118.34 126.7C118.877 126.899 119.436 126.999 120.017 126.999C120.546 126.999 120.975 126.938 121.304 126.817C121.633 126.696 121.876 126.531 122.032 126.323C122.188 126.106 122.266 125.864 122.266 125.595C122.266 125.283 122.162 125.032 121.954 124.841C121.755 124.65 121.49 124.499 121.161 124.386C120.84 124.265 120.485 124.161 120.095 124.074C119.705 123.987 119.311 123.888 118.912 123.775C118.522 123.654 118.162 123.502 117.833 123.32C117.512 123.138 117.252 122.895 117.053 122.592C116.854 122.28 116.754 121.881 116.754 121.396C116.754 120.928 116.875 120.499 117.118 120.109C117.369 119.71 117.751 119.394 118.262 119.16C118.782 118.917 119.441 118.796 120.238 118.796C120.767 118.796 121.291 118.865 121.811 119.004C122.331 119.143 122.782 119.342 123.163 119.602L122.734 120.642C122.344 120.382 121.932 120.196 121.499 120.083C121.066 119.962 120.645 119.901 120.238 119.901C119.727 119.901 119.306 119.966 118.977 120.096C118.648 120.226 118.405 120.399 118.249 120.616C118.102 120.833 118.028 121.075 118.028 121.344C118.028 121.665 118.128 121.92 118.327 122.111C118.535 122.302 118.799 122.453 119.12 122.566C119.449 122.679 119.809 122.783 120.199 122.878C120.589 122.965 120.979 123.064 121.369 123.177C121.768 123.29 122.127 123.437 122.448 123.619C122.777 123.801 123.042 124.044 123.241 124.347C123.44 124.65 123.54 125.04 123.54 125.517C123.54 125.976 123.414 126.405 123.163 126.804C122.912 127.194 122.522 127.51 121.993 127.753C121.473 127.987 120.814 128.104 120.017 128.104ZM129.404 128V126.544L129.339 126.271V123.788C129.339 123.259 129.183 122.852 128.871 122.566C128.568 122.271 128.109 122.124 127.493 122.124C127.086 122.124 126.687 122.193 126.297 122.332C125.907 122.462 125.578 122.64 125.309 122.865L124.789 121.929C125.145 121.643 125.569 121.426 126.063 121.279C126.566 121.123 127.09 121.045 127.636 121.045C128.581 121.045 129.309 121.275 129.82 121.734C130.332 122.193 130.587 122.895 130.587 123.84V128H129.404ZM127.142 128.078C126.631 128.078 126.18 127.991 125.79 127.818C125.409 127.645 125.114 127.406 124.906 127.103C124.698 126.791 124.594 126.44 124.594 126.05C124.594 125.677 124.681 125.339 124.854 125.036C125.036 124.733 125.327 124.49 125.725 124.308C126.133 124.126 126.679 124.035 127.363 124.035H129.547V124.932H127.415C126.791 124.932 126.371 125.036 126.154 125.244C125.938 125.452 125.829 125.703 125.829 125.998C125.829 126.336 125.964 126.609 126.232 126.817C126.501 127.016 126.874 127.116 127.35 127.116C127.818 127.116 128.226 127.012 128.572 126.804C128.928 126.596 129.183 126.293 129.339 125.894L129.586 126.752C129.422 127.159 129.131 127.484 128.715 127.727C128.299 127.961 127.775 128.078 127.142 128.078ZM134.447 128L131.431 121.11H132.731L135.409 127.35H134.785L137.515 121.11H138.737L135.721 128H134.447ZM142.649 128.078C141.912 128.078 141.262 127.926 140.699 127.623C140.144 127.32 139.711 126.904 139.399 126.375C139.096 125.846 138.944 125.24 138.944 124.555C138.944 123.87 139.091 123.264 139.386 122.735C139.689 122.206 140.101 121.795 140.621 121.5C141.15 121.197 141.743 121.045 142.402 121.045C143.069 121.045 143.659 121.192 144.17 121.487C144.681 121.782 145.08 122.198 145.366 122.735C145.661 123.264 145.808 123.883 145.808 124.594C145.808 124.646 145.804 124.707 145.795 124.776C145.795 124.845 145.791 124.91 145.782 124.971H139.919V124.074H145.132L144.625 124.386C144.634 123.944 144.543 123.55 144.352 123.203C144.161 122.856 143.897 122.588 143.559 122.397C143.23 122.198 142.844 122.098 142.402 122.098C141.969 122.098 141.583 122.198 141.245 122.397C140.907 122.588 140.643 122.861 140.452 123.216C140.261 123.563 140.166 123.961 140.166 124.412V124.62C140.166 125.079 140.27 125.491 140.478 125.855C140.695 126.21 140.994 126.488 141.375 126.687C141.756 126.886 142.194 126.986 142.688 126.986C143.095 126.986 143.464 126.917 143.793 126.778C144.131 126.639 144.426 126.431 144.677 126.154L145.366 126.96C145.054 127.324 144.664 127.601 144.196 127.792C143.737 127.983 143.221 128.078 142.649 128.078ZM153.281 129.56V117.34H154.113V129.56H153.281ZM153.606 128.104C152.913 128.104 152.25 128 151.617 127.792C150.985 127.575 150.486 127.298 150.122 126.96L150.603 125.946C150.95 126.249 151.392 126.501 151.929 126.7C152.467 126.899 153.026 126.999 153.606 126.999C154.135 126.999 154.564 126.938 154.893 126.817C155.223 126.696 155.465 126.531 155.621 126.323C155.777 126.106 155.855 125.864 155.855 125.595C155.855 125.283 155.751 125.032 155.543 124.841C155.344 124.65 155.08 124.499 154.75 124.386C154.43 124.265 154.074 124.161 153.684 124.074C153.294 123.987 152.9 123.888 152.501 123.775C152.111 123.654 151.752 123.502 151.422 123.32C151.102 123.138 150.842 122.895 150.642 122.592C150.443 122.28 150.343 121.881 150.343 121.396C150.343 120.928 150.465 120.499 150.707 120.109C150.959 119.71 151.34 119.394 151.851 119.16C152.371 118.917 153.03 118.796 153.827 118.796C154.356 118.796 154.88 118.865 155.4 119.004C155.92 119.143 156.371 119.342 156.752 119.602L156.323 120.642C155.933 120.382 155.522 120.196 155.088 120.083C154.655 119.962 154.235 119.901 153.827 119.901C153.316 119.901 152.896 119.966 152.566 120.096C152.237 120.226 151.994 120.399 151.838 120.616C151.691 120.833 151.617 121.075 151.617 121.344C151.617 121.665 151.717 121.92 151.916 122.111C152.124 122.302 152.389 122.453 152.709 122.566C153.039 122.679 153.398 122.783 153.788 122.878C154.178 122.965 154.568 123.064 154.958 123.177C155.357 123.29 155.717 123.437 156.037 123.619C156.367 123.801 156.631 124.044 156.83 124.347C157.03 124.65 157.129 125.04 157.129 125.517C157.129 125.976 157.004 126.405 156.752 126.804C156.501 127.194 156.111 127.51 155.582 127.753C155.062 127.987 154.404 128.104 153.606 128.104ZM158.014 128V127.116L161.719 123.541C162.049 123.229 162.291 122.956 162.447 122.722C162.612 122.479 162.72 122.258 162.772 122.059C162.833 121.851 162.863 121.652 162.863 121.461C162.863 120.993 162.699 120.625 162.369 120.356C162.04 120.087 161.559 119.953 160.926 119.953C160.441 119.953 160.003 120.035 159.613 120.2C159.223 120.356 158.885 120.603 158.599 120.941L157.715 120.174C158.062 119.732 158.526 119.394 159.106 119.16C159.696 118.917 160.341 118.796 161.043 118.796C161.676 118.796 162.226 118.9 162.694 119.108C163.162 119.307 163.522 119.598 163.773 119.979C164.033 120.36 164.163 120.811 164.163 121.331C164.163 121.626 164.124 121.916 164.046 122.202C163.968 122.488 163.821 122.791 163.604 123.112C163.388 123.433 163.076 123.792 162.668 124.191L159.366 127.376L159.054 126.869H164.553V128H158.014ZM169.198 128.104C168.487 128.104 167.85 127.922 167.287 127.558C166.732 127.194 166.29 126.665 165.961 125.972C165.64 125.279 165.48 124.438 165.48 123.45C165.48 122.462 165.64 121.621 165.961 120.928C166.29 120.235 166.732 119.706 167.287 119.342C167.85 118.978 168.487 118.796 169.198 118.796C169.9 118.796 170.532 118.978 171.096 119.342C171.659 119.706 172.101 120.235 172.422 120.928C172.742 121.621 172.903 122.462 172.903 123.45C172.903 124.438 172.742 125.279 172.422 125.972C172.101 126.665 171.659 127.194 171.096 127.558C170.532 127.922 169.9 128.104 169.198 128.104ZM169.198 126.947C169.674 126.947 170.09 126.817 170.446 126.557C170.81 126.297 171.091 125.907 171.291 125.387C171.499 124.867 171.603 124.221 171.603 123.45C171.603 122.679 171.499 122.033 171.291 121.513C171.091 120.993 170.81 120.603 170.446 120.343C170.09 120.083 169.674 119.953 169.198 119.953C168.721 119.953 168.301 120.083 167.937 120.343C167.573 120.603 167.287 120.993 167.079 121.513C166.879 122.033 166.78 122.679 166.78 123.45C166.78 124.221 166.879 124.867 167.079 125.387C167.287 125.907 167.573 126.297 167.937 126.557C168.301 126.817 168.721 126.947 169.198 126.947ZM174.726 128.078C174.484 128.078 174.276 127.996 174.102 127.831C173.929 127.658 173.842 127.441 173.842 127.181C173.842 126.921 173.929 126.709 174.102 126.544C174.276 126.379 174.484 126.297 174.726 126.297C174.96 126.297 175.16 126.379 175.324 126.544C175.498 126.709 175.584 126.921 175.584 127.181C175.584 127.441 175.498 127.658 175.324 127.831C175.16 127.996 174.96 128.078 174.726 128.078ZM180.249 128.104C179.538 128.104 178.901 127.922 178.338 127.558C177.783 127.194 177.341 126.665 177.012 125.972C176.691 125.279 176.531 124.438 176.531 123.45C176.531 122.462 176.691 121.621 177.012 120.928C177.341 120.235 177.783 119.706 178.338 119.342C178.901 118.978 179.538 118.796 180.249 118.796C180.951 118.796 181.584 118.978 182.147 119.342C182.71 119.706 183.152 120.235 183.473 120.928C183.794 121.621 183.954 122.462 183.954 123.45C183.954 124.438 183.794 125.279 183.473 125.972C183.152 126.665 182.71 127.194 182.147 127.558C181.584 127.922 180.951 128.104 180.249 128.104ZM180.249 126.947C180.726 126.947 181.142 126.817 181.497 126.557C181.861 126.297 182.143 125.907 182.342 125.387C182.55 124.867 182.654 124.221 182.654 123.45C182.654 122.679 182.55 122.033 182.342 121.513C182.143 120.993 181.861 120.603 181.497 120.343C181.142 120.083 180.726 119.953 180.249 119.953C179.772 119.953 179.352 120.083 178.988 120.343C178.624 120.603 178.338 120.993 178.13 121.513C177.931 122.033 177.831 122.679 177.831 123.45C177.831 124.221 177.931 124.867 178.13 125.387C178.338 125.907 178.624 126.297 178.988 126.557C179.352 126.817 179.772 126.947 180.249 126.947ZM188.79 128.104C188.079 128.104 187.442 127.922 186.879 127.558C186.324 127.194 185.882 126.665 185.553 125.972C185.232 125.279 185.072 124.438 185.072 123.45C185.072 122.462 185.232 121.621 185.553 120.928C185.882 120.235 186.324 119.706 186.879 119.342C187.442 118.978 188.079 118.796 188.79 118.796C189.492 118.796 190.125 118.978 190.688 119.342C191.251 119.706 191.693 120.235 192.014 120.928C192.335 121.621 192.495 122.462 192.495 123.45C192.495 124.438 192.335 125.279 192.014 125.972C191.693 126.665 191.251 127.194 190.688 127.558C190.125 127.922 189.492 128.104 188.79 128.104ZM188.79 126.947C189.267 126.947 189.683 126.817 190.038 126.557C190.402 126.297 190.684 125.907 190.883 125.387C191.091 124.867 191.195 124.221 191.195 123.45C191.195 122.679 191.091 122.033 190.883 121.513C190.684 120.993 190.402 120.603 190.038 120.343C189.683 120.083 189.267 119.953 188.79 119.953C188.313 119.953 187.893 120.083 187.529 120.343C187.165 120.603 186.879 120.993 186.671 121.513C186.472 122.033 186.372 122.679 186.372 123.45C186.372 124.221 186.472 124.867 186.671 125.387C186.879 125.907 187.165 126.297 187.529 126.557C187.893 126.817 188.313 126.947 188.79 126.947Z" fill="#20BC69"/>
<path d="M42.836 98.772V95.202C40.736 95.034 38.748 94.572 36.872 93.816C35.024 93.032 33.4 92.01 32 90.75L35.36 85.878C37.572 87.866 40.064 89.098 42.836 89.574V84.198L40.232 83.694C37.516 83.218 35.556 82.378 34.352 81.174C33.176 79.97 32.588 78.234 32.588 75.966C32.588 74.202 32.994 72.676 33.806 71.388C34.618 70.1 35.794 69.106 37.334 68.406C38.874 67.678 40.708 67.272 42.836 67.188V63.744H45.902V67.314C47.638 67.482 49.36 67.846 51.068 68.406C52.804 68.938 54.414 69.652 55.898 70.548L53.126 75.756C51.81 75.028 50.55 74.44 49.346 73.992C48.17 73.544 47.022 73.222 45.902 73.026V78.486L48.464 78.906C51.348 79.41 53.448 80.264 54.764 81.468C56.108 82.644 56.78 84.282 56.78 86.382C56.78 88.118 56.346 89.63 55.478 90.918C54.61 92.206 53.364 93.228 51.74 93.984C50.144 94.712 48.198 95.132 45.902 95.244V98.772H42.836ZM42.836 78.192V72.774C41.632 72.83 40.666 73.096 39.938 73.572C39.238 74.02 38.888 74.636 38.888 75.42C38.888 76.008 39 76.498 39.224 76.89C39.448 77.254 39.798 77.534 40.274 77.73C40.778 77.926 41.45 78.066 42.29 78.15L42.836 78.192ZM45.902 89.784C47.218 89.7 48.268 89.42 49.052 88.944C49.836 88.468 50.228 87.838 50.228 87.054C50.228 86.494 50.13 86.06 49.934 85.752C49.738 85.416 49.36 85.164 48.8 84.996C48.268 84.8 47.498 84.632 46.49 84.492L45.902 84.408V89.784ZM69.8948 96.462C65.7788 96.462 62.1948 95.146 59.1428 92.514L63.0068 88.02C64.2388 89.028 65.4288 89.756 66.5768 90.204C67.7248 90.652 68.9428 90.876 70.2308 90.876C71.2668 90.876 72.1628 90.708 72.9188 90.372C73.6748 90.008 74.2628 89.504 74.6828 88.86C75.1308 88.216 75.3548 87.474 75.3548 86.634C75.3548 85.402 74.8368 84.38 73.8008 83.568C72.7928 82.756 71.5048 82.35 69.9368 82.35C69.1528 82.35 68.3688 82.476 67.5848 82.728C66.8008 82.952 65.9888 83.302 65.1488 83.778L60.4868 82.392L61.2008 66.6H80.4368V72.102H66.9128L66.6188 78.486C67.6268 78.01 68.5788 77.702 69.4748 77.562C70.3708 77.422 71.2388 77.352 72.0788 77.352C74.0668 77.352 75.8028 77.73 77.2868 78.486C78.7708 79.214 79.9188 80.25 80.7308 81.594C81.5708 82.938 81.9908 84.506 81.9908 86.298C81.9908 88.314 81.4868 90.092 80.4788 91.632C79.4708 93.144 78.0568 94.334 76.2368 95.202C74.4168 96.042 72.3028 96.462 69.8948 96.462ZM95.0912 66.138C97.6672 66.138 99.9212 66.754 101.853 67.986C103.813 69.218 105.325 70.94 106.389 73.152C107.481 75.336 108.027 77.898 108.027 80.838C108.027 83.946 107.425 86.676 106.221 89.028C105.045 91.38 103.379 93.214 101.223 94.53C99.0952 95.818 96.6032 96.462 93.7472 96.462C92.1232 96.462 90.4852 96.168 88.8332 95.58C87.1812 94.992 85.8372 94.222 84.8012 93.27L88.5392 88.65C89.3512 89.35 90.2052 89.868 91.1012 90.204C92.0252 90.512 93.0752 90.666 94.2512 90.666C95.8472 90.666 97.1912 90.274 98.2832 89.49C99.3752 88.706 100.201 87.572 100.761 86.088C101.321 84.576 101.601 82.756 101.601 80.628C100.677 81.944 99.5572 82.966 98.2412 83.694C96.9532 84.422 95.5672 84.786 94.0832 84.786C92.1512 84.786 90.4432 84.408 88.9592 83.652C87.4752 82.896 86.3132 81.846 85.4732 80.502C84.6332 79.158 84.2132 77.618 84.2132 75.882C84.2132 74.006 84.6752 72.34 85.5992 70.884C86.5512 69.428 87.8532 68.28 89.5052 67.44C91.1572 66.572 93.0192 66.138 95.0912 66.138ZM95.1752 79.746C96.3792 79.746 97.4852 79.522 98.4932 79.074C99.5292 78.626 100.439 77.996 101.223 77.184C100.943 76.064 100.523 75.098 99.9632 74.286C99.4312 73.446 98.7732 72.802 97.9892 72.354C97.2332 71.906 96.3792 71.682 95.4272 71.682C94.5032 71.682 93.6632 71.864 92.9072 72.228C92.1792 72.564 91.6052 73.04 91.1852 73.656C90.7652 74.272 90.5552 74.972 90.5552 75.756C90.5552 76.54 90.7512 77.24 91.1432 77.856C91.5352 78.444 92.0812 78.906 92.7812 79.242C93.4812 79.578 94.2792 79.746 95.1752 79.746ZM114.154 96.462C113.09 96.462 112.166 96.084 111.382 95.328C110.626 94.544 110.248 93.62 110.248 92.556C110.248 91.492 110.626 90.582 111.382 89.826C112.166 89.042 113.09 88.65 114.154 88.65C115.218 88.65 116.128 89.042 116.884 89.826C117.668 90.582 118.06 91.492 118.06 92.556C118.06 93.62 117.668 94.544 116.884 95.328C116.128 96.084 115.218 96.462 114.154 96.462ZM131.39 66.138C133.966 66.138 136.22 66.754 138.152 67.986C140.112 69.218 141.624 70.94 142.688 73.152C143.78 75.336 144.326 77.898 144.326 80.838C144.326 83.946 143.724 86.676 142.52 89.028C141.344 91.38 139.678 93.214 137.522 94.53C135.394 95.818 132.902 96.462 130.046 96.462C128.422 96.462 126.784 96.168 125.132 95.58C123.48 94.992 122.136 94.222 121.1 93.27L124.838 88.65C125.65 89.35 126.504 89.868 127.4 90.204C128.324 90.512 129.374 90.666 130.55 90.666C132.146 90.666 133.49 90.274 134.582 89.49C135.674 88.706 136.5 87.572 137.06 86.088C137.62 84.576 137.9 82.756 137.9 80.628C136.976 81.944 135.856 82.966 134.54 83.694C133.252 84.422 131.866 84.786 130.382 84.786C128.45 84.786 126.742 84.408 125.258 83.652C123.774 82.896 122.612 81.846 121.772 80.502C120.932 79.158 120.512 77.618 120.512 75.882C120.512 74.006 120.974 72.34 121.898 70.884C122.85 69.428 124.152 68.28 125.804 67.44C127.456 66.572 129.318 66.138 131.39 66.138ZM131.474 79.746C132.678 79.746 133.784 79.522 134.792 79.074C135.828 78.626 136.738 77.996 137.522 77.184C137.242 76.064 136.822 75.098 136.262 74.286C135.73 73.446 135.072 72.802 134.288 72.354C133.532 71.906 132.678 71.682 131.726 71.682C130.802 71.682 129.962 71.864 129.206 72.228C128.478 72.564 127.904 73.04 127.484 73.656C127.064 74.272 126.854 74.972 126.854 75.756C126.854 76.54 127.05 77.24 127.442 77.856C127.834 78.444 128.38 78.906 129.08 79.242C129.78 79.578 130.578 79.746 131.474 79.746ZM158.46 66.138C161.036 66.138 163.29 66.754 165.222 67.986C167.182 69.218 168.694 70.94 169.758 73.152C170.85 75.336 171.396 77.898 171.396 80.838C171.396 83.946 170.794 86.676 169.59 89.028C168.414 91.38 166.748 93.214 164.592 94.53C162.464 95.818 159.972 96.462 157.116 96.462C155.492 96.462 153.854 96.168 152.202 95.58C150.55 94.992 149.206 94.222 148.17 93.27L151.908 88.65C152.72 89.35 153.574 89.868 154.47 90.204C155.394 90.512 156.444 90.666 157.62 90.666C159.216 90.666 160.56 90.274 161.652 89.49C162.744 88.706 163.57 87.572 164.13 86.088C164.69 84.576 164.97 82.756 164.97 80.628C164.046 81.944 162.926 82.966 161.61 83.694C160.322 84.422 158.936 84.786 157.452 84.786C155.52 84.786 153.812 84.408 152.328 83.652C150.844 82.896 149.682 81.846 148.842 80.502C148.002 79.158 147.582 77.618 147.582 75.882C147.582 74.006 148.044 72.34 148.968 70.884C149.92 69.428 151.222 68.28 152.874 67.44C154.526 66.572 156.388 66.138 158.46 66.138ZM158.544 79.746C159.748 79.746 160.854 79.522 161.862 79.074C162.898 78.626 163.808 77.996 164.592 77.184C164.312 76.064 163.892 75.098 163.332 74.286C162.8 73.446 162.142 72.802 161.358 72.354C160.602 71.906 159.748 71.682 158.796 71.682C157.872 71.682 157.032 71.864 156.276 72.228C155.548 72.564 154.974 73.04 154.554 73.656C154.134 74.272 153.924 74.972 153.924 75.756C153.924 76.54 154.12 77.24 154.512 77.856C154.904 78.444 155.45 78.906 156.15 79.242C156.85 79.578 157.648 79.746 158.544 79.746Z" fill="black"/>
<rect x="32" y="183" width="360" height="64" rx="16" fill="black"/>
<path d="M158.998 221L158.158 218.7H152.198L151.358 221H148.238L153.398 207.66H156.958L162.098 221H158.998ZM155.178 210.12L152.958 216.24H157.378L155.178 210.12ZM169.91 221V219.78C169.15 220.72 168.09 221.24 166.93 221.24C164.49 221.24 162.65 219.4 162.65 216.18C162.65 213.02 164.47 211.1 166.93 211.1C168.07 211.1 169.15 211.6 169.91 212.58V207.66H172.47V221H169.91ZM169.91 217.88V214.46C169.47 213.82 168.57 213.36 167.71 213.36C166.27 213.36 165.27 214.5 165.27 216.18C165.27 217.84 166.27 218.98 167.71 218.98C168.57 218.98 169.47 218.52 169.91 217.88ZM181.629 221V219.78C180.869 220.72 179.809 221.24 178.649 221.24C176.209 221.24 174.369 219.4 174.369 216.18C174.369 213.02 176.189 211.1 178.649 211.1C179.789 211.1 180.869 211.6 181.629 212.58V207.66H184.189V221H181.629ZM181.629 217.88V214.46C181.189 213.82 180.289 213.36 179.429 213.36C177.989 213.36 176.989 214.5 176.989 216.18C176.989 217.84 177.989 218.98 179.429 218.98C180.289 218.98 181.189 218.52 181.629 217.88ZM195.064 221.24C193.284 221.24 192.324 220.32 192.324 218.6V213.56H190.724V211.34H192.324V208.7H194.884V211.34H196.844V213.56H194.884V217.92C194.884 218.52 195.204 218.98 195.764 218.98C196.144 218.98 196.504 218.84 196.644 218.7L197.184 220.62C196.804 220.96 196.124 221.24 195.064 221.24ZM203.062 221.24C199.882 221.24 197.962 218.92 197.962 216.16C197.962 213.42 199.882 211.1 203.062 211.1C206.262 211.1 208.182 213.42 208.182 216.16C208.182 218.92 206.262 221.24 203.062 221.24ZM203.062 218.98C204.642 218.98 205.542 217.68 205.542 216.16C205.542 214.66 204.642 213.36 203.062 213.36C201.482 213.36 200.602 214.66 200.602 216.16C200.602 217.68 201.482 218.98 203.062 218.98ZM215.244 221V207.66H222.264C224.804 207.66 226.104 209.28 226.104 211.06C226.104 212.74 225.064 213.86 223.804 214.12C225.224 214.34 226.364 215.72 226.364 217.4C226.364 219.4 225.024 221 222.484 221H215.244ZM218.084 213.02H221.644C222.604 213.02 223.204 212.4 223.204 211.54C223.204 210.72 222.604 210.08 221.644 210.08H218.084V213.02ZM218.084 218.58H221.744C222.824 218.58 223.464 217.96 223.464 217C223.464 216.16 222.864 215.44 221.744 215.44H218.084V218.58ZM234.246 221V220C233.586 220.78 232.446 221.24 231.186 221.24C229.646 221.24 227.826 220.2 227.826 218.04C227.826 215.78 229.646 214.96 231.186 214.96C232.466 214.96 233.606 215.36 234.246 216.14V214.8C234.246 213.82 233.406 213.18 232.126 213.18C231.086 213.18 230.126 213.56 229.306 214.32L228.346 212.62C229.526 211.58 231.046 211.1 232.566 211.1C234.766 211.1 236.786 211.98 236.786 214.76V221H234.246ZM234.246 218.68V217.48C233.826 216.92 233.026 216.64 232.206 216.64C231.206 216.64 230.386 217.18 230.386 218.1C230.386 219 231.206 219.52 232.206 219.52C233.026 219.52 233.826 219.24 234.246 218.68ZM238.465 219.74L239.565 217.96C240.265 218.62 241.705 219.28 242.905 219.28C244.005 219.28 244.525 218.9 244.525 218.3C244.525 217.62 243.685 217.38 242.585 217.16C240.925 216.84 238.785 216.44 238.785 214.14C238.785 212.52 240.205 211.1 242.745 211.1C244.385 211.1 245.685 211.66 246.625 212.42L245.625 214.16C245.045 213.54 243.945 213.04 242.765 213.04C241.845 213.04 241.245 213.38 241.245 213.94C241.245 214.54 242.005 214.76 243.085 214.98C244.745 215.3 246.965 215.74 246.965 218.14C246.965 219.92 245.465 221.24 242.785 221.24C241.105 221.24 239.485 220.68 238.465 219.74ZM255.096 221L252.536 217.28L251.376 218.52V221H248.836V207.66H251.376V215.64L255.036 211.34H258.156L254.336 215.72L258.276 221H255.096ZM258.49 216.16C258.49 213.36 260.55 211.1 263.49 211.1C266.37 211.1 268.33 213.26 268.33 216.42V216.98H261.15C261.31 218.2 262.29 219.22 263.93 219.22C264.83 219.22 265.89 218.86 266.51 218.26L267.63 219.9C266.65 220.8 265.15 221.24 263.65 221.24C260.71 221.24 258.49 219.26 258.49 216.16ZM263.49 213.12C261.91 213.12 261.23 214.3 261.11 215.26H265.87C265.81 214.34 265.17 213.12 263.49 213.12ZM273.404 221.24C271.624 221.24 270.664 220.32 270.664 218.6V213.56H269.064V211.34H270.664V208.7H273.224V211.34H275.184V213.56H273.224V217.92C273.224 218.52 273.544 218.98 274.104 218.98C274.484 218.98 274.844 218.84 274.984 218.7L275.524 220.62C275.144 220.96 274.464 221.24 273.404 221.24Z" fill="white"/>
</svg>
