<svg width="980" height="245" viewBox="0 0 980 245" fill="none" xmlns="http://www.w3.org/2000/svg">
<path d="M10 45.9998H970C974.971 45.9998 979 50.0292 979 54.9998V244H1V54.9998L1.01172 54.5369C1.25264 49.7814 5.18468 45.9998 10 45.9998Z" fill="#D4FFE8" stroke="#B4F2D9" stroke-width="2"/>
<path d="M0 94.9998C0 89.4769 4.47715 84.9998 10 84.9998H970C975.523 84.9998 980 89.4769 980 94.9998V245H0V94.9998Z" fill="#B4F2D3"/>
<path d="M19.7471 105.341C20.1107 104.926 20.7426 104.883 21.1583 105.247C21.5738 105.61 21.6163 106.242 21.253 106.658L19.2042 109H29.5001C30.0523 109 30.5001 109.447 30.5001 110C30.5001 110.552 30.0523 111 29.5001 111H19.2042L21.253 113.341L21.3165 113.422C21.6098 113.835 21.5478 114.412 21.1583 114.753C20.7686 115.093 20.1889 115.078 19.8184 114.732L19.7471 114.658L16.2471 110.658C15.9176 110.281 15.9176 109.718 16.2471 109.341L19.7471 105.341Z" fill="#17A16C" stroke="#B4F2D3" stroke-width="0.5" stroke-linecap="round" stroke-linejoin="round"/>
<circle cx="19" cy="64.9998" r="7" fill="#17A16C"/>
<circle cx="41" cy="64.9998" r="7" fill="#4AB777"/>
<circle cx="63" cy="64.9998" r="7" fill="#AAE8C7"/>
<path d="M82 60.9998C82 55.4769 86.4772 50.9998 92 50.9998H251C256.523 50.9998 261 55.4769 261 60.9998V84.9998H82V60.9998Z" fill="#B4F2D3"/>
<path d="M92.9996 64.2386H101.218L101.249 64.2394C101.571 64.2552 101.826 64.5126 101.826 64.8278V66.8501L101.825 66.9079C101.795 67.5013 101.311 67.9848 100.693 68.0258L93.5201 68.5017C93.5127 68.5597 93.4945 68.6162 93.4656 68.6682L92.8191 69.8328L101.547 69.8334C101.804 69.8461 102.009 70.0528 102.009 70.3058L102.008 70.3302C101.995 70.572 101.796 70.7659 101.547 70.7781L101.522 70.7787H100.394C100.562 70.9082 100.671 71.1082 100.671 71.3328L100.67 71.3692C100.65 71.7428 100.331 72.0399 99.9407 72.04L99.9031 72.0391C99.5299 72.0207 99.2307 71.7308 99.2118 71.3692L99.2107 71.3328C99.2108 71.1082 99.319 70.9082 99.4876 70.7787H94.0075C94.1761 70.9082 94.2843 71.1082 94.2843 71.3328L94.2834 71.3692C94.2639 71.7428 93.945 72.04 93.5545 72.04L93.517 72.0391C93.1438 72.0208 92.8444 71.7308 92.8255 71.3692L92.8246 71.3328C92.8246 71.1082 92.9329 70.9082 93.1014 70.7787H92.0035L91.9716 70.7777C91.8127 70.7675 91.6681 70.6821 91.5858 70.548C91.5035 70.414 91.4949 70.2498 91.5611 70.109L91.5753 70.0811L92.5357 68.3515L91.9362 63.5785L91.1425 62.807L91.1253 62.7894C90.9581 62.6096 90.9582 62.3349 91.1257 62.1553L91.1425 62.1383C91.3265 61.9593 91.6214 61.9538 91.8124 62.1215L91.8306 62.1383L92.7429 63.025L92.757 63.0394L92.7816 63.0674C92.8362 63.135 92.8711 63.2161 92.882 63.3021L92.9996 64.2386Z" fill="#17A16C"/>
<path d="M72 84.9861C73.5312 84.9937 75.195 84.9998 77 84.9998H72V84.9861Z" fill="#B4F2D3"/>
<path d="M82 84.9998H77C79.7614 84.9998 82 82.7612 82 79.9998C82 78.1458 81.9923 76.4844 81.9785 74.9998H82V84.9998Z" fill="#B4F2D3"/>
<path d="M271 84.9861C269.469 84.9937 267.805 84.9998 266 84.9998H271V84.9861Z" fill="#B4F2D3"/>
<path d="M261 84.9998H266C263.239 84.9998 261 82.7612 261 79.9998C261 78.1458 261.008 76.4844 261.021 74.9998H261V84.9998Z" fill="#B4F2D3"/>
<path d="M112.656 71.1438C110.376 71.1438 108.552 69.4638 108.552 67.0038C108.552 64.5438 110.376 62.8638 112.656 62.8638C114.228 62.8638 115.212 63.6198 115.836 64.5558L114.816 65.0958C114.396 64.4238 113.604 63.9318 112.656 63.9318C111.036 63.9318 109.788 65.2038 109.788 67.0038C109.788 68.7918 111.036 70.0758 112.656 70.0758C113.604 70.0758 114.396 69.5838 114.816 68.9118L115.836 69.4518C115.2 70.3878 114.228 71.1438 112.656 71.1438ZM117.009 70.9998V62.9958H118.089V70.9998H117.009ZM119.449 68.0958C119.449 66.4158 120.661 65.0598 122.353 65.0598C124.093 65.0598 125.173 66.4158 125.173 68.1918V68.4558H120.589C120.673 69.4398 121.393 70.2558 122.557 70.2558C123.169 70.2558 123.841 70.0158 124.273 69.5718L124.777 70.2798C124.201 70.8438 123.385 71.1438 122.449 71.1438C120.721 71.1438 119.449 69.9198 119.449 68.0958ZM122.353 65.9478C121.189 65.9478 120.637 66.8838 120.577 67.6758H124.117C124.093 66.9078 123.577 65.9478 122.353 65.9478ZM130.1 70.9998V70.3638C129.644 70.8678 128.984 71.1438 128.204 71.1438C127.244 71.1438 126.188 70.4958 126.188 69.2238C126.188 67.9038 127.232 67.3278 128.204 67.3278C128.984 67.3278 129.656 67.5798 130.1 68.0958V67.1358C130.1 66.4158 129.512 65.9838 128.684 65.9838C128.024 65.9838 127.46 66.2358 126.944 66.7518L126.476 66.0078C127.124 65.3718 127.916 65.0598 128.852 65.0598C130.112 65.0598 131.18 65.6118 131.18 67.0878V70.9998H130.1ZM130.1 69.7278V68.7438C129.776 68.3118 129.212 68.0838 128.612 68.0838C127.832 68.0838 127.28 68.5518 127.28 69.2358C127.28 69.9198 127.832 70.3878 128.612 70.3878C129.212 70.3878 129.776 70.1598 130.1 69.7278ZM136.823 70.9998V67.2918C136.823 66.3318 136.331 66.0198 135.587 66.0198C134.915 66.0198 134.303 66.4278 133.991 66.8598V70.9998H132.911V65.2038H133.991V66.0198C134.375 65.5518 135.143 65.0598 136.043 65.0598C137.267 65.0598 137.903 65.7078 137.903 66.9318V70.9998H136.823ZM146.5 71.1438C144.22 71.1438 142.396 69.4638 142.396 67.0038C142.396 64.5438 144.22 62.8638 146.5 62.8638C148.072 62.8638 149.056 63.6198 149.68 64.5558L148.66 65.0958C148.24 64.4238 147.448 63.9318 146.5 63.9318C144.88 63.9318 143.632 65.2038 143.632 67.0038C143.632 68.7918 144.88 70.0758 146.5 70.0758C147.448 70.0758 148.24 69.5838 148.66 68.9118L149.68 69.4518C149.044 70.3878 148.072 71.1438 146.5 71.1438ZM154.428 70.9998V70.3638C153.972 70.8678 153.312 71.1438 152.532 71.1438C151.572 71.1438 150.516 70.4958 150.516 69.2238C150.516 67.9038 151.56 67.3278 152.532 67.3278C153.312 67.3278 153.984 67.5798 154.428 68.0958V67.1358C154.428 66.4158 153.84 65.9838 153.012 65.9838C152.352 65.9838 151.788 66.2358 151.272 66.7518L150.804 66.0078C151.452 65.3718 152.244 65.0598 153.18 65.0598C154.44 65.0598 155.508 65.6118 155.508 67.0878V70.9998H154.428ZM154.428 69.7278V68.7438C154.104 68.3118 153.54 68.0838 152.94 68.0838C152.16 68.0838 151.608 68.5518 151.608 69.2358C151.608 69.9198 152.16 70.3878 152.94 70.3878C153.54 70.3878 154.104 70.1598 154.428 69.7278ZM157.239 70.9998V65.2038H158.319V66.0918C158.763 65.5158 159.447 65.0718 160.215 65.0718V66.1638C160.107 66.1398 159.987 66.1278 159.843 66.1278C159.303 66.1278 158.571 66.5358 158.319 66.9678V70.9998H157.239ZM162.89 71.1438C161.978 71.1438 161.51 70.6278 161.51 69.7158V66.1518H160.55V65.2038H161.51V63.6198H162.59V65.2038H163.766V66.1518H162.59V69.4758C162.59 69.8838 162.782 70.1838 163.154 70.1838C163.406 70.1838 163.634 70.0758 163.742 69.9558L164.018 70.7718C163.79 70.9878 163.454 71.1438 162.89 71.1438ZM168.079 71.2398V62.7558H168.847V71.2398H168.079ZM173.224 69.8718L173.908 68.9478C174.448 69.5478 175.312 70.0758 176.428 70.0758C177.724 70.0758 178.18 69.4158 178.18 68.8398C178.18 67.9998 177.268 67.7598 176.248 67.4958C174.964 67.1598 173.476 66.7878 173.476 65.1558C173.476 63.8358 174.64 62.8758 176.308 62.8758C177.544 62.8758 178.516 63.2718 179.224 63.9918L178.528 64.8798C177.916 64.2318 177.076 63.9438 176.212 63.9438C175.324 63.9438 174.712 64.3998 174.712 65.0718C174.712 65.7918 175.576 66.0198 176.572 66.2718C177.88 66.6198 179.404 67.0278 179.404 68.7318C179.404 69.9798 178.54 71.1438 176.38 71.1438C174.952 71.1438 173.908 70.6278 173.224 69.8718ZM184.682 70.9998V67.2678C184.682 66.3078 184.19 66.0198 183.446 66.0198C182.774 66.0198 182.162 66.4278 181.85 66.8598V70.9998H180.77V62.9958H181.85V66.0198C182.234 65.5518 183.014 65.0598 183.902 65.0598C185.138 65.0598 185.762 65.6838 185.762 66.9078V70.9998H184.682ZM190.053 71.1438C188.253 71.1438 187.125 69.7758 187.125 68.0958C187.125 66.4278 188.253 65.0598 190.053 65.0598C191.865 65.0598 192.981 66.4278 192.981 68.0958C192.981 69.7758 191.865 71.1438 190.053 71.1438ZM190.053 70.1838C191.217 70.1838 191.853 69.1998 191.853 68.0958C191.853 67.0038 191.217 66.0198 190.053 66.0198C188.901 66.0198 188.253 67.0038 188.253 68.0958C188.253 69.1998 188.901 70.1838 190.053 70.1838ZM195.432 73.2078H194.352V65.2038H195.432V66.0318C195.852 65.4558 196.548 65.0598 197.328 65.0598C198.84 65.0598 199.908 66.1998 199.908 68.0958C199.908 69.9918 198.84 71.1438 197.328 71.1438C196.572 71.1438 195.9 70.7958 195.432 70.1598V73.2078ZM198.78 68.0958C198.78 66.8958 198.12 66.0198 197.04 66.0198C196.38 66.0198 195.72 66.4038 195.432 66.8718V69.3318C195.72 69.7878 196.38 70.1838 197.04 70.1838C198.12 70.1838 198.78 69.3078 198.78 68.0958ZM202.358 73.2078H201.278V65.2038H202.358V66.0318C202.778 65.4558 203.474 65.0598 204.254 65.0598C205.766 65.0598 206.834 66.1998 206.834 68.0958C206.834 69.9918 205.766 71.1438 204.254 71.1438C203.498 71.1438 202.826 70.7958 202.358 70.1598V73.2078ZM205.706 68.0958C205.706 66.8958 205.046 66.0198 203.966 66.0198C203.306 66.0198 202.646 66.4038 202.358 66.8718V69.3318C202.646 69.7878 203.306 70.1838 203.966 70.1838C205.046 70.1838 205.706 69.3078 205.706 68.0958ZM208.732 64.2318C208.36 64.2318 208.036 63.9318 208.036 63.5478C208.036 63.1638 208.36 62.8518 208.732 62.8518C209.116 62.8518 209.428 63.1638 209.428 63.5478C209.428 63.9318 209.116 64.2318 208.732 64.2318ZM208.204 70.9998V65.2038H209.284V70.9998H208.204ZM214.917 70.9998V67.2918C214.917 66.3318 214.425 66.0198 213.681 66.0198C213.009 66.0198 212.397 66.4278 212.085 66.8598V70.9998H211.005V65.2038H212.085V66.0198C212.469 65.5518 213.237 65.0598 214.137 65.0598C215.361 65.0598 215.997 65.7078 215.997 66.9318V70.9998H214.917ZM217.66 72.4878L218.176 71.6958C218.656 72.2478 219.244 72.4638 220.036 72.4638C220.936 72.4638 221.836 72.0318 221.836 70.8078V70.0518C221.392 70.6278 220.708 71.0478 219.928 71.0478C218.428 71.0478 217.348 69.9438 217.348 68.0478C217.348 66.1878 218.428 65.0598 219.928 65.0598C220.684 65.0598 221.368 65.4198 221.836 66.0438V65.2038H222.916V70.7718C222.916 72.7638 221.464 73.3518 220.036 73.3518C219.064 73.3518 218.356 73.1478 217.66 72.4878ZM221.836 69.2238V66.8718C221.536 66.4038 220.876 66.0198 220.228 66.0198C219.148 66.0198 218.476 66.8598 218.476 68.0478C218.476 69.2478 219.148 70.0878 220.228 70.0878C220.876 70.0878 221.536 69.6918 221.836 69.2238ZM227.991 70.9998V66.1518H227.031V65.2038H227.991V64.8198C227.991 63.5718 228.723 62.8758 229.755 62.8758C230.127 62.8758 230.451 62.9478 230.703 63.0918L230.451 63.8958C230.307 63.8118 230.127 63.7638 229.935 63.7638C229.395 63.7638 229.071 64.1238 229.071 64.8198V65.2038H230.247V66.1518H229.071V70.9998H227.991ZM233.846 71.1438C232.046 71.1438 230.918 69.7758 230.918 68.0958C230.918 66.4278 232.046 65.0598 233.846 65.0598C235.658 65.0598 236.774 66.4278 236.774 68.0958C236.774 69.7758 235.658 71.1438 233.846 71.1438ZM233.846 70.1838C235.01 70.1838 235.646 69.1998 235.646 68.0958C235.646 67.0038 235.01 66.0198 233.846 66.0198C232.694 66.0198 232.046 67.0038 232.046 68.0958C232.046 69.1998 232.694 70.1838 233.846 70.1838ZM238.145 70.9998V65.2038H239.225V66.0918C239.669 65.5158 240.353 65.0718 241.121 65.0718V66.1638C241.013 66.1398 240.893 66.1278 240.749 66.1278C240.209 66.1278 239.477 66.5358 239.225 66.9678V70.9998H238.145ZM241 70.3758C241 69.9678 241.336 69.6318 241.744 69.6318C242.152 69.6318 242.5 69.9678 242.5 70.3758C242.5 70.7838 242.152 71.1318 241.744 71.1318C241.336 71.1318 241 70.7838 241 70.3758ZM243.86 70.3758C243.86 69.9678 244.196 69.6318 244.604 69.6318C245.012 69.6318 245.36 69.9678 245.36 70.3758C245.36 70.7838 245.012 71.1318 244.604 71.1318C244.196 71.1318 243.86 70.7838 243.86 70.3758ZM246.719 70.3758C246.719 69.9678 247.055 69.6318 247.463 69.6318C247.871 69.6318 248.219 69.9678 248.219 70.3758C248.219 70.7838 247.871 71.1318 247.463 71.1318C247.055 71.1318 246.719 70.7838 246.719 70.3758Z" fill="#17A16C"/>
<rect x="2" y="133" width="976" height="112" fill="white"/>
<path d="M924 115H922V103H924V115Z" fill="#D4FFE8"/>
<circle cx="944" cy="109" r="10" fill="#17A16C"/>
<rect x="892" y="98.9998" width="20" height="20" rx="3" fill="#17A16C"/>
<path d="M898.547 106.239H906.765L906.796 106.239C907.118 106.255 907.373 106.513 907.373 106.828V108.85L907.372 108.908C907.342 109.501 906.858 109.985 906.24 110.026L899.067 110.502C899.06 110.56 899.042 110.616 899.013 110.668L898.366 111.833L907.094 111.833C907.351 111.846 907.556 112.053 907.556 112.306L907.555 112.33C907.542 112.572 907.343 112.766 907.094 112.778L907.069 112.779H905.941C906.109 112.908 906.218 113.108 906.218 113.333L906.217 113.369C906.197 113.743 905.878 114.04 905.488 114.04L905.45 114.039C905.077 114.021 904.778 113.731 904.759 113.369L904.758 113.333C904.758 113.108 904.866 112.908 905.035 112.779H899.555C899.723 112.908 899.831 113.108 899.831 113.333L899.831 113.369C899.811 113.743 899.492 114.04 899.102 114.04L899.064 114.039C898.691 114.021 898.392 113.731 898.373 113.369L898.372 113.333C898.372 113.108 898.48 112.908 898.649 112.779H897.551L897.519 112.778C897.36 112.768 897.215 112.682 897.133 112.548C897.051 112.414 897.042 112.25 897.108 112.109L897.122 112.081L898.083 110.351L897.483 105.579L896.69 104.807L896.672 104.789C896.505 104.61 896.505 104.335 896.673 104.155L896.69 104.138C896.874 103.959 897.169 103.954 897.36 104.122L897.378 104.138L898.29 105.025L898.304 105.039L898.329 105.067C898.383 105.135 898.418 105.216 898.429 105.302L898.547 106.239Z" fill="white"/>
<circle cx="966" cy="102" r="2" fill="#D4FFE8"/>
<circle cx="966" cy="109" r="2" fill="#D4FFE8"/>
<circle cx="966" cy="116" r="2" fill="#D4FFE8"/>
<rect x="77" y="95.9998" width="805" height="27" rx="13.5" fill="#17A16C"/>
<path d="M107.588 110.612C107.588 108.582 108.988 107.07 111.032 107.07C112.306 107.07 113.076 107.602 113.566 108.26L112.726 109.03C112.32 108.456 111.774 108.19 111.088 108.19C109.758 108.19 108.904 109.212 108.904 110.612C108.904 112.012 109.758 113.048 111.088 113.048C111.774 113.048 112.32 112.768 112.726 112.208L113.566 112.978C113.076 113.636 112.306 114.168 111.032 114.168C108.988 114.168 107.588 112.642 107.588 110.612ZM114.953 114V104.662H116.213V114H114.953ZM117.801 110.612C117.801 108.652 119.215 107.07 121.189 107.07C123.219 107.07 124.479 108.652 124.479 110.724V111.032H119.131C119.229 112.18 120.069 113.132 121.427 113.132C122.141 113.132 122.925 112.852 123.429 112.334L124.017 113.16C123.345 113.818 122.393 114.168 121.301 114.168C119.285 114.168 117.801 112.74 117.801 110.612ZM121.189 108.106C119.831 108.106 119.187 109.198 119.117 110.122H123.247C123.219 109.226 122.617 108.106 121.189 108.106ZM130.227 114V113.258C129.695 113.846 128.925 114.168 128.015 114.168C126.895 114.168 125.663 113.412 125.663 111.928C125.663 110.388 126.881 109.716 128.015 109.716C128.925 109.716 129.709 110.01 130.227 110.612V109.492C130.227 108.652 129.541 108.148 128.575 108.148C127.805 108.148 127.147 108.442 126.545 109.044L125.999 108.176C126.755 107.434 127.679 107.07 128.771 107.07C130.241 107.07 131.487 107.714 131.487 109.436V114H130.227ZM130.227 112.516V111.368C129.849 110.864 129.191 110.598 128.491 110.598C127.581 110.598 126.937 111.144 126.937 111.942C126.937 112.74 127.581 113.286 128.491 113.286C129.191 113.286 129.849 113.02 130.227 112.516ZM138.07 114V109.674C138.07 108.554 137.496 108.19 136.628 108.19C135.844 108.19 135.13 108.666 134.766 109.17V114H133.506V107.238H134.766V108.19C135.214 107.644 136.11 107.07 137.16 107.07C138.588 107.07 139.33 107.826 139.33 109.254V114H138.07ZM140.906 110.612C140.906 108.582 142.306 107.07 144.35 107.07C145.624 107.07 146.394 107.602 146.884 108.26L146.044 109.03C145.638 108.456 145.092 108.19 144.406 108.19C143.076 108.19 142.222 109.212 142.222 110.612C142.222 112.012 143.076 113.048 144.406 113.048C145.092 113.048 145.638 112.768 146.044 112.208L146.884 112.978C146.394 113.636 145.624 114.168 144.35 114.168C142.306 114.168 140.906 112.642 140.906 110.612ZM152.444 114V113.258C151.912 113.846 151.142 114.168 150.232 114.168C149.112 114.168 147.88 113.412 147.88 111.928C147.88 110.388 149.098 109.716 150.232 109.716C151.142 109.716 151.926 110.01 152.444 110.612V109.492C152.444 108.652 151.758 108.148 150.792 108.148C150.022 108.148 149.364 108.442 148.762 109.044L148.216 108.176C148.972 107.434 149.896 107.07 150.988 107.07C152.458 107.07 153.704 107.714 153.704 109.436V114H152.444ZM152.444 112.516V111.368C152.066 110.864 151.408 110.598 150.708 110.598C149.798 110.598 149.154 111.144 149.154 111.942C149.154 112.74 149.798 113.286 150.708 113.286C151.408 113.286 152.066 113.02 152.444 112.516ZM155.723 114V107.238H156.983V108.274C157.501 107.602 158.299 107.084 159.195 107.084V108.358C159.069 108.33 158.929 108.316 158.761 108.316C158.131 108.316 157.277 108.792 156.983 109.296V114H155.723ZM162.315 114.168C161.251 114.168 160.705 113.566 160.705 112.502V108.344H159.585V107.238H160.705V105.39H161.965V107.238H163.337V108.344H161.965V112.222C161.965 112.698 162.189 113.048 162.623 113.048C162.917 113.048 163.183 112.922 163.309 112.782L163.631 113.734C163.365 113.986 162.973 114.168 162.315 114.168ZM164.509 113.272C164.509 112.796 164.901 112.404 165.377 112.404C165.853 112.404 166.259 112.796 166.259 113.272C166.259 113.748 165.853 114.154 165.377 114.154C164.901 114.154 164.509 113.748 164.509 113.272ZM167.481 113.118L168.083 112.194C168.545 112.698 169.441 113.16 170.351 113.16C171.303 113.16 171.807 112.768 171.807 112.194C171.807 111.522 171.037 111.298 170.169 111.102C169.021 110.836 167.677 110.528 167.677 109.072C167.677 107.994 168.601 107.07 170.253 107.07C171.415 107.07 172.255 107.49 172.829 108.036L172.269 108.918C171.877 108.442 171.121 108.092 170.267 108.092C169.413 108.092 168.881 108.428 168.881 108.974C168.881 109.562 169.609 109.758 170.449 109.954C171.625 110.22 173.025 110.542 173.025 112.096C173.025 113.258 172.073 114.168 170.295 114.168C169.161 114.168 168.167 113.818 167.481 113.118ZM179.181 114V109.646C179.181 108.526 178.607 108.19 177.739 108.19C176.955 108.19 176.241 108.666 175.877 109.17V114H174.617V104.662H175.877V108.19C176.325 107.644 177.235 107.07 178.271 107.07C179.713 107.07 180.441 107.798 180.441 109.226V114H179.181ZM185.447 114.168C183.347 114.168 182.031 112.572 182.031 110.612C182.031 108.666 183.347 107.07 185.447 107.07C187.561 107.07 188.863 108.666 188.863 110.612C188.863 112.572 187.561 114.168 185.447 114.168ZM185.447 113.048C186.805 113.048 187.547 111.9 187.547 110.612C187.547 109.338 186.805 108.19 185.447 108.19C184.103 108.19 183.347 109.338 183.347 110.612C183.347 111.9 184.103 113.048 185.447 113.048ZM191.723 116.576H190.463V107.238H191.723V108.204C192.213 107.532 193.025 107.07 193.935 107.07C195.699 107.07 196.945 108.4 196.945 110.612C196.945 112.824 195.699 114.168 193.935 114.168C193.053 114.168 192.269 113.762 191.723 113.02V116.576ZM195.629 110.612C195.629 109.212 194.859 108.19 193.599 108.19C192.829 108.19 192.059 108.638 191.723 109.184V112.054C192.059 112.586 192.829 113.048 193.599 113.048C194.859 113.048 195.629 112.026 195.629 110.612ZM197.535 114.28L200.853 104.382H201.819L198.501 114.28H197.535ZM204.082 116.576H202.822V107.238H204.082V108.204C204.572 107.532 205.384 107.07 206.294 107.07C208.058 107.07 209.304 108.4 209.304 110.612C209.304 112.824 208.058 114.168 206.294 114.168C205.412 114.168 204.628 113.762 204.082 113.02V116.576ZM207.988 110.612C207.988 109.212 207.218 108.19 205.958 108.19C205.188 108.19 204.418 108.638 204.082 109.184V112.054C204.418 112.586 205.188 113.048 205.958 113.048C207.218 113.048 207.988 112.026 207.988 110.612ZM210.903 114V107.238H212.163V108.274C212.681 107.602 213.479 107.084 214.375 107.084V108.358C214.249 108.33 214.109 108.316 213.941 108.316C213.311 108.316 212.457 108.792 212.163 109.296V114H210.903ZM218.629 114.168C216.529 114.168 215.213 112.572 215.213 110.612C215.213 108.666 216.529 107.07 218.629 107.07C220.743 107.07 222.045 108.666 222.045 110.612C222.045 112.572 220.743 114.168 218.629 114.168ZM218.629 113.048C219.987 113.048 220.729 111.9 220.729 110.612C220.729 109.338 219.987 108.19 218.629 108.19C217.285 108.19 216.529 109.338 216.529 110.612C216.529 111.9 217.285 113.048 218.629 113.048ZM228.461 114V113.034C227.957 113.706 227.145 114.168 226.249 114.168C224.485 114.168 223.225 112.838 223.225 110.626C223.225 108.456 224.485 107.07 226.249 107.07C227.117 107.07 227.915 107.49 228.461 108.218V104.662H229.721V114H228.461ZM228.461 112.068V109.184C228.111 108.638 227.355 108.19 226.585 108.19C225.325 108.19 224.541 109.212 224.541 110.626C224.541 112.026 225.325 113.048 226.585 113.048C227.355 113.048 228.111 112.614 228.461 112.068ZM236.302 114V113.076C235.784 113.636 234.93 114.168 233.894 114.168C232.452 114.168 231.738 113.44 231.738 112.012V107.238H232.998V111.592C232.998 112.712 233.558 113.048 234.426 113.048C235.21 113.048 235.924 112.6 236.302 112.096V107.238H237.562V114H236.302ZM239.139 110.612C239.139 108.582 240.539 107.07 242.583 107.07C243.857 107.07 244.627 107.602 245.117 108.26L244.277 109.03C243.871 108.456 243.325 108.19 242.639 108.19C241.309 108.19 240.455 109.212 240.455 110.612C240.455 112.012 241.309 113.048 242.639 113.048C243.325 113.048 243.871 112.768 244.277 112.208L245.117 112.978C244.627 113.636 243.857 114.168 242.583 114.168C240.539 114.168 239.139 112.642 239.139 110.612ZM248.366 114.168C247.302 114.168 246.756 113.566 246.756 112.502V108.344H245.636V107.238H246.756V105.39H248.016V107.238H249.388V108.344H248.016V112.222C248.016 112.698 248.24 113.048 248.674 113.048C248.968 113.048 249.234 112.922 249.36 112.782L249.682 113.734C249.416 113.986 249.024 114.168 248.366 114.168ZM252.001 110.164C252.001 109.226 252.673 108.75 253.303 108.302C253.863 107.91 254.381 107.56 254.381 106.916C254.381 106.3 253.905 105.768 252.897 105.768C251.945 105.768 251.301 106.188 250.811 106.832L249.999 105.936C250.685 105.054 251.735 104.522 253.037 104.522C254.773 104.522 255.823 105.474 255.823 106.706C255.823 107.868 255.025 108.442 254.297 108.946C253.737 109.352 253.219 109.702 253.219 110.29C253.219 110.514 253.359 110.78 253.555 110.948L252.519 111.34C252.169 111.004 252.001 110.612 252.001 110.164ZM252.043 113.272C252.043 112.796 252.435 112.404 252.911 112.404C253.387 112.404 253.793 112.796 253.793 113.272C253.793 113.748 253.387 114.154 252.911 114.154C252.435 114.154 252.043 113.748 252.043 113.272ZM258.483 116.576H257.223V107.238H258.483V108.204C258.973 107.532 259.785 107.07 260.695 107.07C262.459 107.07 263.705 108.4 263.705 110.612C263.705 112.824 262.459 114.168 260.695 114.168C259.813 114.168 259.029 113.762 258.483 113.02V116.576ZM262.389 110.612C262.389 109.212 261.619 108.19 260.359 108.19C259.589 108.19 258.819 108.638 258.483 109.184V112.054C258.819 112.586 259.589 113.048 260.359 113.048C261.619 113.048 262.389 112.026 262.389 110.612ZM264.701 108.4V107.56H270.889V108.4H264.701ZM264.701 111.088V110.248H270.889V111.088H264.701ZM272.303 114V107.238H273.563V108.274C274.081 107.602 274.879 107.084 275.775 107.084V108.358C275.649 108.33 275.509 108.316 275.341 108.316C274.711 108.316 273.857 108.792 273.563 109.296V114H272.303ZM285.251 114V109.492C285.251 108.708 284.901 108.19 284.075 108.19C283.389 108.19 282.717 108.666 282.395 109.156V114H281.135V109.492C281.135 108.708 280.799 108.19 279.945 108.19C279.287 108.19 278.629 108.68 278.293 109.17V114H277.033V107.238H278.293V108.19C278.573 107.77 279.469 107.07 280.477 107.07C281.499 107.07 282.101 107.602 282.311 108.33C282.703 107.7 283.599 107.07 284.593 107.07C285.839 107.07 286.511 107.756 286.511 109.114V114H285.251ZM288.546 114V104.662H294.818V105.894H289.946V108.624H294.72V109.856H289.946V114H288.546ZM296.325 114V104.662H297.725V112.768H301.967V114H296.325ZM303.173 115.736L303.775 114.812C304.335 115.456 305.021 115.708 305.945 115.708C306.995 115.708 308.045 115.204 308.045 113.776V112.894C307.527 113.566 306.729 114.056 305.819 114.056C304.069 114.056 302.809 112.768 302.809 110.556C302.809 108.386 304.069 107.07 305.819 107.07C306.701 107.07 307.499 107.49 308.045 108.218V107.238H309.305V113.734C309.305 116.058 307.611 116.744 305.945 116.744C304.811 116.744 303.985 116.506 303.173 115.736ZM308.045 111.928V109.184C307.695 108.638 306.925 108.19 306.169 108.19C304.909 108.19 304.125 109.17 304.125 110.556C304.125 111.956 304.909 112.936 306.169 112.936C306.925 112.936 307.695 112.474 308.045 111.928ZM314.305 114.168C312.205 114.168 310.889 112.572 310.889 110.612C310.889 108.666 312.205 107.07 314.305 107.07C316.419 107.07 317.721 108.666 317.721 110.612C317.721 112.572 316.419 114.168 314.305 114.168ZM314.305 113.048C315.663 113.048 316.405 111.9 316.405 110.612C316.405 109.338 315.663 108.19 314.305 108.19C312.961 108.19 312.205 109.338 312.205 110.612C312.205 111.9 312.961 113.048 314.305 113.048ZM324.137 114V113.034C323.633 113.706 322.821 114.168 321.925 114.168C320.16 114.168 318.901 112.838 318.901 110.626C318.901 108.456 320.16 107.07 321.925 107.07C322.793 107.07 323.591 107.49 324.137 108.218V104.662H325.397V114H324.137ZM324.137 112.068V109.184C323.787 108.638 323.031 108.19 322.261 108.19C321.001 108.19 320.217 109.212 320.217 110.626C320.217 112.026 321.001 113.048 322.261 113.048C323.031 113.048 323.787 112.614 324.137 112.068ZM327.414 114V104.662H328.674V108.218C329.206 107.49 330.004 107.07 330.886 107.07C332.65 107.07 333.896 108.456 333.896 110.626C333.896 112.838 332.636 114.168 330.886 114.168C329.976 114.168 329.178 113.706 328.674 113.034V114H327.414ZM328.674 112.068C329.01 112.614 329.78 113.048 330.55 113.048C331.81 113.048 332.594 112.04 332.594 110.626C332.594 109.212 331.81 108.19 330.55 108.19C329.78 108.19 329.01 108.652 328.674 109.198V112.068ZM335.508 114V104.662H336.768V114H335.508ZM343.312 114L341.058 111.088L340.036 112.124V114H338.776V104.662H340.036V110.668L343.298 107.238H344.88L341.968 110.304L344.908 114H343.312ZM351.915 114L350.249 108.806L348.583 114H347.281L345.153 107.238H346.469L348.009 112.39L349.703 107.238H350.795L352.489 112.39L354.029 107.238H355.345L353.217 114H351.915Z" fill="white"/>
<circle cx="91.5" cy="109.5" r="9.5" fill="#4AB777"/>
<path d="M96 107.5C96.2761 107.5 96.5 107.276 96.5 107C96.5 106.724 96.2761 106.5 96 106.5V107.5ZM88 107V107.5H96V107V106.5H88V107Z" fill="white"/>
<path d="M88 104.5C89.3807 104.5 90.5 105.619 90.5 107C90.5 108.209 89.641 109.217 88.5 109.449V109.5H87.5V109.449C86.359 109.217 85.5 108.209 85.5 107C85.5 105.619 86.6193 104.5 88 104.5ZM88 106.5C87.7239 106.5 87.5 106.724 87.5 107C87.5 107.276 87.7239 107.5 88 107.5C88.2761 107.5 88.5 107.276 88.5 107C88.5 106.724 88.2761 106.5 88 106.5Z" fill="white" stroke="#4AB777"/>
<path d="M87 112.5C86.7239 112.5 86.5 112.276 86.5 112C86.5 111.724 86.7239 111.5 87 111.5V112.5ZM95 112V112.5H87V112V111.5H95V112Z" fill="white"/>
<path d="M95 109.5C93.6193 109.5 92.5 110.619 92.5 112C92.5 113.209 93.359 114.217 94.5 114.449V114.5H95.5V114.449C96.641 114.217 97.5 113.209 97.5 112C97.5 110.619 96.3807 109.5 95 109.5ZM95 111.5C95.2761 111.5 95.5 111.724 95.5 112C95.5 112.276 95.2761 112.5 95 112.5C94.7239 112.5 94.5 112.276 94.5 112C94.5 111.724 94.7239 111.5 95 111.5Z" fill="white" stroke="#4AB777"/>
<path d="M933.411 60.2625C933.71 57.7073 935.708 55.7094 938.263 55.4111C940.124 55.1939 942.271 54.9998 944 54.9998C945.729 54.9998 947.876 55.1939 949.737 55.4111C952.292 55.7094 954.29 57.7073 954.589 60.2625C954.806 62.1233 955 64.2703 955 65.9998C955 67.7292 954.806 69.8762 954.589 71.737C954.29 74.2922 952.292 76.2901 949.737 76.5884C947.876 76.8056 945.729 76.9998 944 76.9998C942.271 76.9998 940.124 76.8056 938.263 76.5884C935.708 76.2901 933.71 74.2922 933.411 71.737C933.194 69.8762 933 67.7292 933 65.9998C933 64.2703 933.194 62.1233 933.411 60.2625Z" fill="#B4F2D3"/>
<path d="M939.168 64.4454C939.455 64.0146 940.019 63.8782 940.467 64.1153L940.555 64.168L944.466 66.7754L947.901 64.2002C948.342 63.869 948.969 63.9587 949.3 64.4004C949.631 64.8423 949.542 65.4685 949.1 65.7998L945.666 68.376C945.03 68.8528 944.177 68.9053 943.491 68.5225L943.357 68.4395L939.445 65.8321L939.363 65.7715C938.972 65.4493 938.881 64.8763 939.168 64.4454Z" fill="#17A16C"/>
<path d="M54 102C56.2602 102 58.2993 102.941 59.7529 104.447L59.751 103.402L59.7559 103.3C59.806 102.795 60.2313 102.4 60.749 102.399C61.2667 102.398 61.6929 102.792 61.7451 103.296L61.751 103.398L61.7568 105.778C61.7593 106.888 60.8555 107.789 59.7451 107.783L57.4385 107.77L57.3359 107.765C56.8321 107.711 56.4417 107.283 56.4443 106.765C56.4472 106.213 56.8962 105.768 57.4482 105.77L58.2598 105.774C57.1716 104.677 55.6655 104 54 104C50.6863 104 48 106.686 48 110C48 113.313 50.6863 116 54 116C55.7769 116 57.3726 115.229 58.4727 114L58.6465 113.797C59.4932 112.762 60 111.441 60 110C60 109.447 60.4477 109 61 109C61.5523 109 62 109.447 62 110C62 111.92 61.3225 113.685 60.1943 115.063L59.9629 115.334C58.4995 116.969 56.3694 118 54 118C49.5817 118 46 114.418 46 110C46 105.581 49.5817 102 54 102Z" fill="#17A16C"/>
<path d="M59.7529 104.447L59.609 104.586L59.9539 104.943L59.9529 104.447L59.7529 104.447ZM59.751 103.402L59.551 103.393L59.551 103.402L59.751 103.402ZM59.7559 103.3L59.5566 103.28L59.5561 103.29L59.7559 103.3ZM60.749 102.399L60.7486 102.199L60.7486 102.199L60.749 102.399ZM61.7451 103.296L61.945 103.284L61.9441 103.275L61.7451 103.296ZM61.751 103.398L61.9513 103.398L61.9507 103.387L61.751 103.398ZM61.7568 105.778L61.9568 105.778V105.778L61.7568 105.778ZM59.7451 107.783L59.744 107.983L59.7441 107.983L59.7451 107.783ZM57.4385 107.77L57.429 107.97L57.4374 107.97L57.4385 107.77ZM57.3359 107.765L57.3146 107.965L57.3264 107.965L57.3359 107.765ZM56.4443 106.765L56.2443 106.764V106.764L56.4443 106.765ZM57.4482 105.77L57.4492 105.57L57.4492 105.57L57.4482 105.77ZM58.2598 105.774L58.2588 105.974L58.7422 105.976L58.4018 105.633L58.2598 105.774ZM58.4727 114L58.6217 114.133L58.6246 114.13L58.4727 114ZM58.6465 113.797L58.7985 113.927L58.8013 113.923L58.6465 113.797ZM60.1943 115.063L60.3463 115.193L60.3491 115.19L60.1943 115.063ZM59.9629 115.334L60.112 115.467L60.1149 115.464L59.9629 115.334ZM54 102V102.2C56.2035 102.2 58.1913 103.117 59.609 104.586L59.7529 104.447L59.8968 104.308C58.4073 102.765 56.317 101.8 54 101.8V102ZM59.7529 104.447L59.9529 104.447L59.951 103.402L59.751 103.402L59.551 103.402L59.5529 104.447L59.7529 104.447ZM59.751 103.402L59.9508 103.412L59.9556 103.309L59.7559 103.3L59.5561 103.29L59.5512 103.393L59.751 103.402ZM59.7559 103.3L59.9549 103.319C59.995 102.916 60.3355 102.6 60.7495 102.599L60.749 102.399L60.7486 102.199C60.1271 102.201 59.617 102.674 59.5568 103.28L59.7559 103.3ZM60.749 102.399L60.7494 102.599C61.1631 102.598 61.5044 102.913 61.5462 103.316L61.7451 103.296L61.9441 103.275C61.8814 102.67 61.3703 102.198 60.7486 102.199L60.749 102.399ZM61.7451 103.296L61.5454 103.307L61.5513 103.41L61.751 103.398L61.9507 103.387L61.9448 103.284L61.7451 103.296ZM61.751 103.398L61.551 103.399L61.5568 105.779L61.7568 105.778L61.9568 105.778L61.951 103.398L61.751 103.398ZM61.7568 105.778L61.5568 105.779C61.559 106.778 60.7456 107.588 59.7462 107.583L59.7451 107.783L59.7441 107.983C60.9654 107.989 61.9595 106.999 61.9568 105.778L61.7568 105.778ZM59.7451 107.783L59.7462 107.583L57.4396 107.57L57.4385 107.77L57.4374 107.97L59.744 107.983L59.7451 107.783ZM57.4385 107.77L57.448 107.57L57.3455 107.566L57.3359 107.765L57.3264 107.965L57.429 107.97L57.4385 107.77ZM57.3359 107.765L57.3572 107.567C56.9547 107.523 56.6422 107.181 56.6443 106.766L56.4443 106.765L56.2443 106.764C56.2412 107.385 56.7094 107.9 57.3147 107.964L57.3359 107.765ZM56.4443 106.765L56.6443 106.766C56.6467 106.324 57.006 105.968 57.4473 105.97L57.4482 105.77L57.4492 105.57C56.7865 105.567 56.2478 106.102 56.2443 106.764L56.4443 106.765ZM57.4482 105.77L57.4473 105.97L58.2588 105.974L58.2598 105.774L58.2607 105.574L57.4492 105.57L57.4482 105.77ZM58.2598 105.774L58.4018 105.633C57.2775 104.5 55.7209 103.8 54 103.8V104V104.2C55.61 104.2 57.0656 104.854 58.1178 105.915L58.2598 105.774ZM54 104V103.8C50.5758 103.8 47.8 106.576 47.8 110H48H48.2C48.2 106.797 50.7967 104.2 54 104.2V104ZM48 110H47.8C47.8 113.424 50.5758 116.2 54 116.2V116V115.8C50.7967 115.8 48.2 113.203 48.2 110H48ZM54 116V116.2C55.8361 116.2 57.4852 115.403 58.6217 114.133L58.4727 114L58.3236 113.866C57.2599 115.055 55.7177 115.8 54 115.8V116ZM58.4727 114L58.6246 114.13L58.7984 113.927L58.6465 113.797L58.4945 113.667L58.3207 113.87L58.4727 114ZM58.6465 113.797L58.8013 113.923C59.6762 112.854 60.2 111.489 60.2 110H60H59.8C59.8 111.393 59.3102 112.67 58.4917 113.67L58.6465 113.797ZM60 110H60.2C60.2 109.558 60.5582 109.2 61 109.2V109V108.8C60.3373 108.8 59.8 109.337 59.8 110H60ZM61 109V109.2C61.4418 109.2 61.8 109.558 61.8 110H62H62.2C62.2 109.337 61.6627 108.8 61 108.8V109ZM62 110H61.8C61.8 111.872 61.1395 113.592 60.0395 114.937L60.1943 115.063L60.3491 115.19C61.5054 113.777 62.2 111.968 62.2 110H62ZM60.1943 115.063L60.0424 114.933L59.8109 115.204L59.9629 115.334L60.1149 115.464L60.3463 115.193L60.1943 115.063ZM59.9629 115.334L59.8139 115.2C58.3868 116.795 56.3101 117.8 54 117.8V118V118.2C56.4286 118.2 58.6122 117.143 60.1119 115.467L59.9629 115.334ZM54 118V117.8C49.6922 117.8 46.2 114.308 46.2 110H46H45.8C45.8 114.528 49.4713 118.2 54 118.2V118ZM46 110H46.2C46.2 105.692 49.6922 102.2 54 102.2V102V101.8C49.4713 101.8 45.8 105.471 45.8 110H46Z" fill="#B4F2D3"/>
<path d="M0 -0.000244141H980V245H0V-0.000244141Z" fill="url(#paint0_linear_9_207)"/>
<defs>
<linearGradient id="paint0_linear_9_207" x1="490" y1="-0.000244141" x2="490" y2="245" gradientUnits="userSpaceOnUse">
<stop stop-color="#20BC69" stop-opacity="0"/>
<stop offset="1" stop-color="#21BC69"/>
</linearGradient>
</defs>
</svg>
