<svg width="50" height="46" viewBox="0 0 50 46" fill="none" xmlns="http://www.w3.org/2000/svg">
<path d="M10.1323 11.1471H44.9977L45.1301 11.1502C46.4935 11.2171 47.5777 12.3093 47.5777 13.6466V22.226L47.5714 22.4712C47.4456 24.9887 45.3921 27.0398 42.7699 27.2138L12.3405 29.2326C12.3091 29.4786 12.2318 29.7182 12.1093 29.9388L9.36646 34.8797L46.3938 34.8822C47.4845 34.936 48.3518 35.813 48.3518 36.8865L48.3493 36.9897C48.2957 38.0156 47.4492 38.8381 46.3938 38.8901L46.2874 38.8926H41.5011C42.2162 39.442 42.6754 40.2905 42.6755 41.2433L42.6711 41.3979C42.5882 42.9826 41.2357 44.2431 39.5792 44.2433L39.4196 44.2395C37.8364 44.1617 36.567 42.9316 36.4868 41.3979L36.4823 41.2433C36.4824 40.2905 36.9417 39.442 37.6567 38.8926H14.408C15.1232 39.442 15.5824 40.2904 15.5825 41.2433L15.5787 41.3979C15.4958 42.9827 14.1428 44.2433 12.4862 44.2433L12.3272 44.2395C10.7438 44.1619 9.47393 42.9317 9.3937 41.3979L9.3899 41.2433C9.38998 40.2905 9.84918 39.442 10.5643 38.8926H5.90659L5.77103 38.8882C5.09677 38.8451 4.48337 38.4827 4.13421 37.9139C3.7852 37.3452 3.74857 36.6487 4.02969 36.0516L4.08987 35.9331L8.16419 28.5953L5.62091 8.34662L2.25351 5.07361L2.18067 4.99886C1.47145 4.23588 1.47192 3.0708 2.18257 2.30862L2.25351 2.23641C3.03445 1.47734 4.28547 1.45382 5.09578 2.16547L5.17306 2.23641L9.04341 5.99844L9.10295 6.05925L9.20747 6.17834C9.43905 6.46509 9.58731 6.80926 9.63314 7.17411L10.1323 11.1471Z" fill="#256454"/>
<path d="M46.9197 13.4663C46.8289 12.5755 46.0725 11.847 45.1011 11.7978L44.9972 11.7953V11.7959H10.1318C9.82531 11.7959 9.56348 11.5819 9.49834 11.2879L9.4882 11.2277L8.98905 7.25476C8.95877 7.01389 8.86083 6.78453 8.7059 6.59091L8.62609 6.50032L8.59061 6.46358L4.72027 2.70156V2.70092L4.66706 2.65278L4.55937 2.56663C4.00232 2.16664 3.20819 2.21275 2.70528 2.70156L2.65334 2.7535C2.17768 3.26666 2.17863 4.04401 2.65524 4.55692L2.70528 4.60823L6.07267 7.88123L6.14425 7.96421C6.20869 8.0525 6.2502 8.15611 6.26397 8.26573L8.80725 28.5144C8.82441 28.6511 8.79747 28.7899 8.7306 28.9103L4.66389 36.2342L4.61575 36.3273L4.61638 36.328C4.42836 36.7273 4.45209 37.1923 4.68669 37.5746L4.73293 37.6449C4.97305 37.9864 5.36492 38.2086 5.80092 38.2397L5.92761 38.2441H10.5638C10.8416 38.2441 11.0889 38.4207 11.1782 38.6837C11.2676 38.9468 11.1794 39.2379 10.9591 39.4071C10.3946 39.8408 10.0405 40.5011 10.038 41.2359L10.0412 41.3638L10.0494 41.4741C10.1646 42.6075 11.1276 43.5285 12.3533 43.591L12.4933 43.5942C13.8175 43.5904 14.8662 42.5858 14.9301 41.3638L14.9327 41.2353C14.93 40.5006 14.5766 39.8406 14.0123 39.4071C13.7919 39.2379 13.7037 38.9468 13.7931 38.6837C13.8825 38.4207 14.1297 38.2441 14.4075 38.2441H37.6562C37.934 38.2441 38.1813 38.4207 38.2707 38.6837C38.36 38.9468 38.2718 39.2379 38.0515 39.4071C37.4876 39.8404 37.1335 40.5 37.1305 41.234L37.1343 41.3638L37.1425 41.4741C37.2577 42.6075 38.2203 43.5284 39.4457 43.591L39.5857 43.5942C40.91 43.5906 41.9586 42.586 42.0226 41.3638L42.0257 41.2334C42.0225 40.4996 41.6691 39.8403 41.1053 39.4071C40.885 39.2379 40.7974 38.9468 40.8868 38.6837C40.9762 38.4208 41.2229 38.2442 41.5006 38.2441H46.2717L46.3648 38.2416C47.1012 38.2037 47.6653 37.6333 47.7007 36.9557L47.702 36.881C47.6991 36.1772 47.1291 35.5741 46.3743 35.5305L9.36595 35.5286C9.13622 35.5285 8.92382 35.4066 8.80725 35.2087C8.69072 35.0107 8.68757 34.766 8.79902 34.5651L11.5418 29.6242V29.6236L11.5976 29.5108C11.6476 29.3959 11.6805 29.2746 11.6964 29.1504L11.7065 29.0934C11.7677 28.8139 12.0068 28.6047 12.2969 28.5854L42.7263 26.5666L42.941 26.5476C45.1445 26.3008 46.8176 24.5449 46.9229 22.4384L46.9286 22.2091V13.6468L46.9197 13.4663ZM48.2259 22.2427L48.2195 22.4878C48.2194 22.493 48.2192 22.4985 48.2189 22.5037C48.0803 25.2751 45.8914 27.5219 43.0855 27.8366L42.8125 27.8607L12.8569 29.8478C12.8219 29.9479 12.7814 30.0464 12.734 30.1424L12.6757 30.2539L10.4675 34.2313L46.3933 34.2338L46.425 34.2344C47.8433 34.3043 48.9999 35.4498 48.9999 36.8867C48.9999 36.8919 49.0001 36.8973 48.9999 36.9025L48.9974 37.0057C48.9973 37.0117 48.9971 37.0176 48.9968 37.0235C48.9273 38.3537 47.8673 39.4031 46.5529 39.5288L46.425 39.5376C46.4196 39.5379 46.4139 39.5381 46.4085 39.5383L46.3021 39.5408C46.297 39.5409 46.292 39.5414 46.2869 39.5414H42.8897C43.1651 40.0483 43.3235 40.6265 43.3236 41.2429C43.3236 41.2491 43.3238 41.2556 43.3236 41.2619L43.3192 41.4164C43.3191 41.4215 43.3188 41.4266 43.3186 41.4316C43.22 43.3162 41.6658 44.797 39.7637 44.8877L39.5787 44.8921L39.5635 44.8915L39.4039 44.8877L39.3874 44.8871C37.5478 44.7967 36.0346 43.4054 35.8522 41.6071L35.8382 41.4316C35.838 41.4266 35.8377 41.4215 35.8376 41.4164L35.8332 41.2619C35.833 41.2556 35.8332 41.2491 35.8332 41.2429C35.8333 40.6265 35.9917 40.0483 36.2671 39.5414H15.7967C16.0721 40.0483 16.2305 40.6265 16.2306 41.2429V41.2593L16.2268 41.4139L16.2262 41.4316C16.1244 43.3771 14.4711 44.8921 12.4857 44.8921C12.4806 44.8921 12.4755 44.8916 12.4705 44.8915L12.3115 44.8877L12.295 44.8871C10.4553 44.7969 8.94153 43.4056 8.75911 41.6071L8.74517 41.4316L8.74454 41.4139L8.74074 41.2593C8.74061 41.254 8.74074 41.2482 8.74074 41.2429L8.74707 41.0256C8.77946 40.4905 8.93187 39.9883 9.17465 39.5414H5.90607L5.88517 39.5408L5.74961 39.5364L5.72934 39.5351C4.90555 39.4825 4.1449 39.064 3.67192 38.3911L3.5807 38.253C3.11737 37.4979 3.06843 36.5697 3.44261 35.775L3.45084 35.7579L3.51102 35.6394L3.52242 35.6179L7.49349 28.4656L5.00468 8.6534L1.80072 5.53876C1.79655 5.5347 1.79275 5.53026 1.78868 5.52609L1.71584 5.45134C1.7123 5.44771 1.70853 5.44429 1.70507 5.44057C0.764317 4.42849 0.764793 2.87722 1.7076 1.86604L1.71964 1.85401L1.79059 1.7818L1.80072 1.77103L1.8989 1.68044C2.89482 0.802801 4.39354 0.774675 5.42212 1.59303L5.52347 1.67791L5.53424 1.68741L5.61152 1.75836L5.62482 1.77103L9.49517 5.53305L9.50657 5.54446L9.56612 5.60527L9.59019 5.63124L9.69471 5.75033L9.71181 5.7706L9.8214 5.91629C10.065 6.26417 10.2227 6.66731 10.2762 7.09323L10.7038 10.4986H45.013L45.1454 10.5018L45.1613 10.5024L45.319 10.5138C46.9351 10.6705 48.2259 11.9973 48.2259 13.6468V22.2427Z" fill="#20BC69" stroke="#20BC69" stroke-linejoin="round"/>
</svg>
