<svg width="64" height="64" viewBox="0 0 64 64" fill="none" xmlns="http://www.w3.org/2000/svg">
<path d="M1.19678 15.3099C2.06454 7.87653 7.87653 2.06454 15.3099 1.19678C20.7231 0.564866 26.9689 0 32 0C37.0311 0 43.2769 0.564866 48.6901 1.19678C56.1235 2.06454 61.9355 7.87653 62.8032 15.3099C63.4351 20.7231 64 26.9689 64 32C64 37.0311 63.4351 43.2769 62.8032 48.6901C61.9355 56.1235 56.1235 61.9355 48.6901 62.8032C43.2769 63.4351 37.0311 64 32 64C26.9689 64 20.7231 63.4351 15.3099 62.8032C7.87653 61.9355 2.06454 56.1235 1.19678 48.6901C0.564866 43.2769 0 37.0311 0 32C0 26.9689 0.564866 20.7231 1.19678 15.3099Z" fill="black"/>
<path d="M21.4031 23.2443C21.4307 23.4641 21.6176 23.6289 21.8391 23.6289H46.1875L46.2814 23.6312C47.2487 23.6786 48.0179 24.4535 48.0179 25.4023V31.4892L48.0134 31.6631C47.9242 33.4492 46.4673 34.9044 44.6069 35.0278L23.3791 36.4361C23.1694 36.4501 23.0058 36.6144 22.9267 36.8091C22.9057 36.861 22.8815 36.9118 22.854 36.9612L21.2704 39.8139C21.1078 40.1068 21.3196 40.4666 21.6546 40.4666L47.178 40.4684C47.9518 40.5065 48.5671 41.1287 48.5671 41.8903L48.5653 41.9636C48.5273 42.6914 47.9268 43.2749 47.178 43.3118L47.1025 43.3136H44.9999C44.5802 43.3136 44.3148 43.9532 44.4424 44.3531C44.5058 44.5517 44.5399 44.7626 44.5399 44.9814L44.5368 45.091C44.478 46.2154 43.5184 47.1097 42.3432 47.1098L42.2299 47.1071C41.1067 47.0519 40.2061 46.1792 40.1492 45.091L40.146 44.9814C40.146 44.7626 40.1802 44.5516 40.2435 44.3531C40.3711 43.9532 40.1058 43.3136 39.6861 43.3136H25.7784C25.3586 43.3136 25.0932 43.9534 25.2207 44.3533C25.284 44.5518 25.3181 44.7627 25.3181 44.9814L25.3154 45.091C25.2566 46.2155 24.2967 47.1098 23.1214 47.1098L23.0086 47.1071C21.8853 47.052 20.9843 46.1793 20.9274 45.091L20.9247 44.9814C20.9247 44.7627 20.9588 44.5517 21.0222 44.3532C21.1497 43.9533 20.8843 43.3136 20.4646 43.3136H18.4534L18.3572 43.3105C17.8788 43.2799 17.4437 43.0228 17.1959 42.6193C16.9483 42.2158 16.9223 41.7216 17.1218 41.298L17.1645 41.214L19.9854 36.1336C20.0307 36.052 20.0488 35.9581 20.0372 35.8655L18.2699 21.795C18.2575 21.696 18.2117 21.6042 18.1402 21.5347L15.8616 19.32L15.8099 19.267C15.3068 18.7256 15.3071 17.899 15.8113 17.3583L15.8616 17.3071C16.4157 16.7685 17.3032 16.7518 17.8781 17.2567L17.933 17.3071L20.6789 19.9761L20.7211 20.0193L20.7953 20.1038C20.9596 20.3072 21.0648 20.5514 21.0973 20.8102L21.4031 23.2443Z" fill="#20BC69"/>
</svg>
